G04 Layer: TopSilkLayer*
G04 EasyEDA v6.4.7, 2021-01-18T10:53:27+01:00*
G04 59e0d5d531bc4477b05e4d448ace7ff7,8dc9eacff13444d6b60fd3cb587e6cd5,05*
G04 Gerber Generator version 0.2*
G04 Scale: 100 percent, Rotated: No, Reflected: No *
G04 Dimensions in inches *
G04 leading zeros omitted , absolute positions ,2 integer and 4 decimal *
%FSLAX24Y24*%
%MOIN*%
G90*
D02*

%ADD10C,0.010000*%
%ADD23C,0.004800*%
%ADD24C,0.005910*%
%ADD25C,0.004720*%
%ADD26C,0.005080*%
%ADD27C,0.006000*%
%ADD28C,0.007000*%

%LPD*%
G54D23*
G01X1570Y1164D02*
G01X2374Y1162D01*
G01X1563Y744D02*
G01X1560Y1164D01*
G01X1980Y327D02*
G01X2374Y327D01*
G54D24*
G01X3889Y1522D02*
G01X5622Y1522D01*
G01X3270Y3697D02*
G01X5622Y3697D01*
G54D25*
G01X1181Y2010D02*
G01X1874Y2010D01*
G01X1874Y3219D02*
G01X917Y3219D01*
G01X2374Y1162D02*
G01X2374Y327D01*
G01X4760Y327D01*
G01X4760Y1162D01*
G01X2374Y1162D01*
G01X1980Y327D02*
G01X1563Y327D01*
G01X1563Y744D01*
G54D10*
G01X5729Y5194D02*
G01X5729Y5355D01*
G01X3770Y5355D01*
G01X3770Y5194D01*
G01X3770Y4255D02*
G01X3770Y4094D01*
G01X5729Y4094D01*
G01X5729Y4255D01*
G01X4650Y5125D02*
G01X4650Y4325D01*
G01X4850Y4325D01*
G01X4850Y5125D01*
G01X4650Y5125D01*
G01X4500Y5225D02*
G01X4500Y4725D01*
G01X4500Y4225D01*
G01X5000Y5225D02*
G01X5000Y4725D01*
G01X5000Y4225D01*
G01X4500Y4725D02*
G01X4300Y4725D01*
G01X5000Y4725D02*
G01X5200Y4725D01*
G01X6600Y3425D02*
G01X6600Y3325D01*
G01X7000Y3425D02*
G01X7000Y3325D01*
G01X6600Y1925D02*
G01X6600Y1825D01*
G01X7000Y1925D02*
G01X7000Y1825D01*
G01X1350Y4175D02*
G01X1450Y4175D01*
G01X1350Y4575D02*
G01X1450Y4575D01*
G01X1350Y3525D02*
G01X1450Y3525D01*
G01X1350Y3925D02*
G01X1450Y3925D01*
G54D26*
G01X179Y2575D02*
G01X179Y2675D01*
G01X579Y2675D02*
G01X579Y2575D01*
G01X2900Y2775D02*
G01X2900Y2675D01*
G01X2500Y2675D02*
G01X2500Y2775D01*
G01X2600Y1475D02*
G01X2500Y1475D01*
G01X2500Y1875D02*
G01X2600Y1875D01*
G01X6100Y875D02*
G01X6100Y775D01*
G01X5700Y775D02*
G01X5700Y875D01*
G54D28*
G01X6347Y401D02*
G01X6323Y389D01*
G01X6299Y367D01*
G01X6288Y343D01*
G01X6288Y295D01*
G01X6299Y272D01*
G01X6323Y249D01*
G01X6347Y237D01*
G01X6382Y225D01*
G01X6440Y225D01*
G01X6476Y237D01*
G01X6500Y249D01*
G01X6524Y272D01*
G01X6536Y295D01*
G01X6536Y343D01*
G01X6524Y367D01*
G01X6500Y389D01*
G01X6476Y401D01*
G01X6288Y480D02*
G01X6536Y480D01*
G01X6536Y480D02*
G01X6536Y622D01*
G01X6288Y700D02*
G01X6536Y700D01*
G01X6288Y866D02*
G01X6452Y700D01*
G01X6394Y758D02*
G01X6536Y866D01*
G01X6347Y955D02*
G01X6335Y955D01*
G01X6311Y967D01*
G01X6299Y979D01*
G01X6288Y1002D01*
G01X6288Y1050D01*
G01X6299Y1074D01*
G01X6311Y1085D01*
G01X6335Y1097D01*
G01X6359Y1097D01*
G01X6382Y1085D01*
G01X6417Y1062D01*
G01X6536Y943D01*
G01X6536Y1108D01*
G01X6347Y4401D02*
G01X6323Y4389D01*
G01X6299Y4367D01*
G01X6288Y4343D01*
G01X6288Y4295D01*
G01X6299Y4272D01*
G01X6323Y4249D01*
G01X6347Y4237D01*
G01X6382Y4225D01*
G01X6440Y4225D01*
G01X6476Y4237D01*
G01X6500Y4249D01*
G01X6524Y4272D01*
G01X6536Y4295D01*
G01X6536Y4343D01*
G01X6524Y4367D01*
G01X6500Y4389D01*
G01X6476Y4401D01*
G01X6288Y4480D02*
G01X6536Y4480D01*
G01X6536Y4480D02*
G01X6536Y4622D01*
G01X6288Y4700D02*
G01X6536Y4700D01*
G01X6288Y4866D02*
G01X6452Y4700D01*
G01X6394Y4758D02*
G01X6536Y4866D01*
G01X6335Y4944D02*
G01X6323Y4967D01*
G01X6288Y5002D01*
G01X6536Y5002D01*
G01X965Y329D02*
G01X937Y315D01*
G01X910Y288D01*
G01X896Y260D01*
G01X896Y206D01*
G01X910Y179D01*
G01X937Y151D01*
G01X965Y138D01*
G01X1006Y124D01*
G01X1074Y124D01*
G01X1115Y138D01*
G01X1142Y151D01*
G01X1169Y179D01*
G01X1183Y206D01*
G01X1183Y260D01*
G01X1169Y288D01*
G01X1142Y315D01*
G01X1115Y329D01*
G01X1074Y329D01*
G01X1074Y260D02*
G01X1074Y329D01*
G01X896Y419D02*
G01X1183Y419D01*
G01X896Y419D02*
G01X1183Y610D01*
G01X896Y610D02*
G01X1183Y610D01*
G01X896Y700D02*
G01X1183Y700D01*
G01X896Y700D02*
G01X896Y795D01*
G01X910Y836D01*
G01X937Y863D01*
G01X965Y877D01*
G01X1006Y890D01*
G01X1074Y890D01*
G01X1115Y877D01*
G01X1142Y863D01*
G01X1169Y836D01*
G01X1183Y795D01*
G01X1183Y700D01*
G01X897Y1152D02*
G01X897Y1302D01*
G01X1006Y1220D01*
G01X1006Y1261D01*
G01X1019Y1288D01*
G01X1033Y1302D01*
G01X1074Y1315D01*
G01X1101Y1315D01*
G01X1142Y1302D01*
G01X1169Y1275D01*
G01X1183Y1234D01*
G01X1183Y1193D01*
G01X1169Y1152D01*
G01X1156Y1138D01*
G01X1128Y1125D01*
G01X897Y1405D02*
G01X1183Y1515D01*
G01X897Y1624D02*
G01X1183Y1515D01*
G01X897Y1741D02*
G01X897Y1891D01*
G01X1006Y1809D01*
G01X1006Y1850D01*
G01X1019Y1877D01*
G01X1033Y1891D01*
G01X1074Y1905D01*
G01X1101Y1905D01*
G01X1142Y1891D01*
G01X1169Y1864D01*
G01X1183Y1823D01*
G01X1183Y1782D01*
G01X1169Y1741D01*
G01X1156Y1727D01*
G01X1128Y1714D01*
G01X1190Y5386D02*
G01X1163Y5413D01*
G01X1122Y5427D01*
G01X1067Y5427D01*
G01X1026Y5413D01*
G01X999Y5386D01*
G01X999Y5359D01*
G01X1013Y5332D01*
G01X1026Y5318D01*
G01X1054Y5304D01*
G01X1135Y5277D01*
G01X1163Y5263D01*
G01X1176Y5250D01*
G01X1190Y5222D01*
G01X1190Y5182D01*
G01X1163Y5154D01*
G01X1122Y5141D01*
G01X1067Y5141D01*
G01X1026Y5154D01*
G01X999Y5182D01*
G01X1362Y5427D02*
G01X1321Y5413D01*
G01X1294Y5372D01*
G01X1280Y5304D01*
G01X1280Y5263D01*
G01X1294Y5195D01*
G01X1321Y5154D01*
G01X1362Y5141D01*
G01X1389Y5141D01*
G01X1430Y5154D01*
G01X1457Y5195D01*
G01X1471Y5263D01*
G01X1471Y5304D01*
G01X1457Y5372D01*
G01X1430Y5413D01*
G01X1389Y5427D01*
G01X1362Y5427D01*
G54D24*
G01X3300Y5513D02*
G01X3450Y5288D01*
G01X3450Y5513D02*
G01X3300Y5288D01*
G01X3521Y5469D02*
G01X3542Y5481D01*
G01X3575Y5513D01*
G01X3575Y5288D01*
G01X3099Y4062D02*
G01X3099Y3901D01*
G01X3110Y3869D01*
G01X3131Y3849D01*
G01X3164Y3837D01*
G01X3185Y3837D01*
G01X3217Y3849D01*
G01X3239Y3869D01*
G01X3250Y3901D01*
G01X3250Y4062D01*
G01X3331Y4010D02*
G01X3331Y4019D01*
G01X3342Y4042D01*
G01X3353Y4052D01*
G01X3374Y4062D01*
G01X3417Y4062D01*
G01X3438Y4052D01*
G01X3449Y4042D01*
G01X3460Y4019D01*
G01X3460Y3999D01*
G01X3449Y3976D01*
G01X3428Y3944D01*
G01X3320Y3837D01*
G01X3471Y3837D01*
G01X1925Y2738D02*
G01X1925Y2577D01*
G01X1936Y2545D01*
G01X1957Y2523D01*
G01X1988Y2512D01*
G01X2011Y2512D01*
G01X2042Y2523D01*
G01X2064Y2545D01*
G01X2075Y2577D01*
G01X2075Y2738D01*
G01X2146Y2695D02*
G01X2167Y2706D01*
G01X2200Y2738D01*
G01X2200Y2512D01*
G01X7112Y3175D02*
G01X7337Y3175D01*
G01X7112Y3175D02*
G01X7112Y3272D01*
G01X7122Y3304D01*
G01X7133Y3314D01*
G01X7154Y3325D01*
G01X7175Y3325D01*
G01X7198Y3314D01*
G01X7208Y3304D01*
G01X7219Y3272D01*
G01X7219Y3175D01*
G01X7219Y3250D02*
G01X7337Y3325D01*
G01X7112Y3418D02*
G01X7112Y3536D01*
G01X7198Y3470D01*
G01X7198Y3504D01*
G01X7208Y3525D01*
G01X7219Y3536D01*
G01X7250Y3545D01*
G01X7273Y3545D01*
G01X7304Y3536D01*
G01X7325Y3513D01*
G01X7337Y3481D01*
G01X7337Y3450D01*
G01X7325Y3418D01*
G01X7315Y3406D01*
G01X7294Y3395D01*
G01X7112Y1675D02*
G01X7337Y1675D01*
G01X7112Y1675D02*
G01X7112Y1772D01*
G01X7122Y1804D01*
G01X7133Y1814D01*
G01X7154Y1825D01*
G01X7175Y1825D01*
G01X7198Y1814D01*
G01X7208Y1804D01*
G01X7219Y1772D01*
G01X7219Y1675D01*
G01X7219Y1750D02*
G01X7337Y1825D01*
G01X7112Y2004D02*
G01X7262Y1895D01*
G01X7262Y2056D01*
G01X7112Y2004D02*
G01X7337Y2004D01*
G01X2100Y4463D02*
G01X2100Y4238D01*
G01X2100Y4463D02*
G01X2197Y4463D01*
G01X2228Y4452D01*
G01X2239Y4442D01*
G01X2250Y4419D01*
G01X2250Y4399D01*
G01X2239Y4376D01*
G01X2228Y4367D01*
G01X2197Y4356D01*
G01X2100Y4356D01*
G01X2175Y4356D02*
G01X2250Y4238D01*
G01X2321Y4419D02*
G01X2342Y4431D01*
G01X2375Y4463D01*
G01X2375Y4238D01*
G01X2100Y3862D02*
G01X2100Y3637D01*
G01X2100Y3862D02*
G01X2197Y3862D01*
G01X2228Y3852D01*
G01X2239Y3842D01*
G01X2250Y3819D01*
G01X2250Y3799D01*
G01X2239Y3776D01*
G01X2228Y3767D01*
G01X2197Y3756D01*
G01X2100Y3756D01*
G01X2175Y3756D02*
G01X2250Y3637D01*
G01X2332Y3810D02*
G01X2332Y3819D01*
G01X2342Y3842D01*
G01X2352Y3852D01*
G01X2375Y3862D01*
G01X2417Y3862D01*
G01X2438Y3852D01*
G01X2450Y3842D01*
G01X2461Y3819D01*
G01X2461Y3799D01*
G01X2450Y3776D01*
G01X2428Y3744D01*
G01X2321Y3637D01*
G01X2471Y3637D01*
G01X340Y3410D02*
G01X329Y3431D01*
G01X309Y3452D01*
G01X287Y3462D01*
G01X244Y3462D01*
G01X223Y3452D01*
G01X200Y3431D01*
G01X190Y3410D01*
G01X179Y3376D01*
G01X179Y3324D01*
G01X190Y3292D01*
G01X200Y3269D01*
G01X223Y3249D01*
G01X244Y3237D01*
G01X287Y3237D01*
G01X309Y3249D01*
G01X329Y3269D01*
G01X340Y3292D01*
G01X433Y3462D02*
G01X550Y3462D01*
G01X487Y3376D01*
G01X519Y3376D01*
G01X540Y3367D01*
G01X550Y3356D01*
G01X562Y3324D01*
G01X562Y3301D01*
G01X550Y3269D01*
G01X529Y3249D01*
G01X498Y3237D01*
G01X465Y3237D01*
G01X433Y3249D01*
G01X423Y3258D01*
G01X412Y3281D01*
G01X2661Y3480D02*
G01X2650Y3500D01*
G01X2628Y3523D01*
G01X2607Y3532D01*
G01X2563Y3532D01*
G01X2542Y3523D01*
G01X2521Y3500D01*
G01X2511Y3480D01*
G01X2500Y3447D01*
G01X2500Y3394D01*
G01X2511Y3362D01*
G01X2521Y3339D01*
G01X2542Y3319D01*
G01X2563Y3307D01*
G01X2607Y3307D01*
G01X2628Y3319D01*
G01X2650Y3339D01*
G01X2661Y3362D01*
G01X2742Y3480D02*
G01X2742Y3489D01*
G01X2752Y3512D01*
G01X2763Y3523D01*
G01X2786Y3532D01*
G01X2828Y3532D01*
G01X2850Y3523D01*
G01X2861Y3512D01*
G01X2871Y3489D01*
G01X2871Y3469D01*
G01X2861Y3447D01*
G01X2838Y3414D01*
G01X2732Y3307D01*
G01X2882Y3307D01*
G01X1564Y1686D02*
G01X1544Y1675D01*
G01X1522Y1654D01*
G01X1512Y1631D01*
G01X1512Y1588D01*
G01X1522Y1568D01*
G01X1544Y1545D01*
G01X1564Y1536D01*
G01X1598Y1525D01*
G01X1650Y1525D01*
G01X1683Y1536D01*
G01X1704Y1545D01*
G01X1725Y1568D01*
G01X1737Y1588D01*
G01X1737Y1631D01*
G01X1725Y1654D01*
G01X1704Y1675D01*
G01X1683Y1686D01*
G01X1554Y1756D02*
G01X1544Y1777D01*
G01X1512Y1811D01*
G01X1737Y1811D01*
G01X5414Y886D02*
G01X5394Y875D01*
G01X5372Y854D01*
G01X5362Y831D01*
G01X5362Y788D01*
G01X5372Y768D01*
G01X5394Y745D01*
G01X5414Y736D01*
G01X5448Y725D01*
G01X5500Y725D01*
G01X5533Y736D01*
G01X5554Y745D01*
G01X5575Y768D01*
G01X5587Y788D01*
G01X5587Y831D01*
G01X5575Y854D01*
G01X5554Y875D01*
G01X5533Y886D01*
G01X5362Y1063D02*
G01X5512Y956D01*
G01X5512Y1118D01*
G01X5362Y1063D02*
G01X5587Y1063D01*
G54D27*
G75*
G01X4320Y3425D02*
G03X4320Y3425I-120J0D01*
G01*
M00*
M02*
