G04 Layer: BottomSilkLayer*
G04 EasyEDA v6.4.7, 2021-01-18T10:53:27+01:00*
G04 59e0d5d531bc4477b05e4d448ace7ff7,8dc9eacff13444d6b60fd3cb587e6cd5,05*
G04 Gerber Generator version 0.2*
G04 Scale: 100 percent, Rotated: No, Reflected: No *
G04 Dimensions in inches *
G04 leading zeros omitted , absolute positions ,2 integer and 4 decimal *
%FSLAX24Y24*%
%MOIN*%
G90*
D02*

%ADD29C,0.027000*%
%ADD30C,0.004320*%
%ADD31C,0.007200*%

%LPD*%
G54D29*
G01X7000Y5387D02*
G01X7000Y4051D01*
G01X7000Y5387D02*
G01X6490Y4051D01*
G01X5981Y5387D02*
G01X6490Y4051D01*
G01X5981Y5387D02*
G01X5981Y4051D01*
G01X5561Y5387D02*
G01X5561Y4051D01*
G01X5561Y5387D02*
G01X4734Y5387D01*
G01X5561Y4751D02*
G01X5052Y4751D01*
G01X3932Y5387D02*
G01X4060Y5324D01*
G01X4187Y5196D01*
G01X4250Y5069D01*
G01X4314Y4878D01*
G01X4314Y4560D01*
G01X4250Y4369D01*
G01X4187Y4242D01*
G01X4060Y4114D01*
G01X3932Y4051D01*
G01X3678Y4051D01*
G01X3550Y4114D01*
G01X3423Y4242D01*
G01X3360Y4369D01*
G01X3296Y4560D01*
G01X3296Y4878D01*
G01X3360Y5069D01*
G01X3423Y5196D01*
G01X3550Y5324D01*
G01X3678Y5387D01*
G01X3932Y5387D01*
G54D30*
G01X4497Y1384D02*
G01X4519Y1406D01*
G01X4551Y1417D01*
G01X4595Y1417D01*
G01X4628Y1406D01*
G01X4650Y1384D01*
G01X4650Y1362D01*
G01X4639Y1340D01*
G01X4628Y1329D01*
G01X4606Y1318D01*
G01X4540Y1297D01*
G01X4519Y1286D01*
G01X4508Y1275D01*
G01X4497Y1253D01*
G01X4497Y1220D01*
G01X4519Y1199D01*
G01X4551Y1188D01*
G01X4595Y1188D01*
G01X4628Y1199D01*
G01X4650Y1220D01*
G01X4261Y1362D02*
G01X4272Y1384D01*
G01X4294Y1406D01*
G01X4316Y1417D01*
G01X4359Y1417D01*
G01X4381Y1406D01*
G01X4403Y1384D01*
G01X4414Y1362D01*
G01X4425Y1329D01*
G01X4425Y1275D01*
G01X4414Y1242D01*
G01X4403Y1220D01*
G01X4381Y1199D01*
G01X4359Y1188D01*
G01X4316Y1188D01*
G01X4294Y1199D01*
G01X4272Y1220D01*
G01X4261Y1242D01*
G01X4189Y1417D02*
G01X4189Y1188D01*
G01X4189Y1188D02*
G01X4058Y1188D01*
G01X3697Y1384D02*
G01X3719Y1406D01*
G01X3751Y1417D01*
G01X3795Y1417D01*
G01X3828Y1406D01*
G01X3850Y1384D01*
G01X3850Y1362D01*
G01X3839Y1340D01*
G01X3828Y1329D01*
G01X3806Y1318D01*
G01X3740Y1297D01*
G01X3719Y1286D01*
G01X3708Y1275D01*
G01X3697Y1253D01*
G01X3697Y1220D01*
G01X3719Y1199D01*
G01X3751Y1188D01*
G01X3795Y1188D01*
G01X3828Y1199D01*
G01X3850Y1220D01*
G01X3625Y1417D02*
G01X3625Y1188D01*
G01X3625Y1417D02*
G01X3548Y1417D01*
G01X3516Y1406D01*
G01X3494Y1384D01*
G01X3483Y1362D01*
G01X3472Y1329D01*
G01X3472Y1275D01*
G01X3483Y1242D01*
G01X3494Y1220D01*
G01X3516Y1199D01*
G01X3548Y1188D01*
G01X3625Y1188D01*
G01X3313Y1417D02*
G01X3400Y1188D01*
G01X3313Y1417D02*
G01X3225Y1188D01*
G01X3367Y1264D02*
G01X3258Y1264D01*
G01X3078Y1417D02*
G01X2958Y1417D01*
G01X3023Y1329D01*
G01X2990Y1329D01*
G01X2969Y1318D01*
G01X2958Y1308D01*
G01X2947Y1275D01*
G01X2947Y1253D01*
G01X2958Y1220D01*
G01X2979Y1199D01*
G01X3012Y1188D01*
G01X3045Y1188D01*
G01X3078Y1199D01*
G01X3089Y1209D01*
G01X3100Y1231D01*
G01X2864Y1242D02*
G01X2875Y1231D01*
G01X2864Y1220D01*
G01X2853Y1231D01*
G01X2864Y1242D01*
G01X2759Y1417D02*
G01X2639Y1417D01*
G01X2705Y1329D01*
G01X2672Y1329D01*
G01X2650Y1318D01*
G01X2639Y1308D01*
G01X2628Y1275D01*
G01X2628Y1253D01*
G01X2639Y1220D01*
G01X2661Y1199D01*
G01X2694Y1188D01*
G01X2726Y1188D01*
G01X2759Y1199D01*
G01X2770Y1209D01*
G01X2781Y1231D01*
G01X2556Y1417D02*
G01X2469Y1188D01*
G01X2382Y1417D02*
G01X2469Y1188D01*
G01X2086Y1362D02*
G01X2097Y1384D01*
G01X2119Y1406D01*
G01X2140Y1417D01*
G01X2184Y1417D01*
G01X2206Y1406D01*
G01X2228Y1384D01*
G01X2239Y1362D01*
G01X2250Y1329D01*
G01X2250Y1275D01*
G01X2239Y1242D01*
G01X2228Y1220D01*
G01X2206Y1199D01*
G01X2184Y1188D01*
G01X2140Y1188D01*
G01X2119Y1199D01*
G01X2097Y1220D01*
G01X2086Y1242D01*
G01X2086Y1275D01*
G01X2140Y1275D02*
G01X2086Y1275D01*
G01X2014Y1417D02*
G01X2014Y1188D01*
G01X2014Y1417D02*
G01X1861Y1188D01*
G01X1861Y1417D02*
G01X1861Y1188D01*
G01X1789Y1417D02*
G01X1789Y1188D01*
G01X1789Y1417D02*
G01X1713Y1417D01*
G01X1680Y1406D01*
G01X1658Y1384D01*
G01X1647Y1362D01*
G01X1636Y1329D01*
G01X1636Y1275D01*
G01X1647Y1242D01*
G01X1658Y1220D01*
G01X1680Y1199D01*
G01X1713Y1188D01*
G01X1789Y1188D01*
G54D31*
G01X7067Y3688D02*
G01X6887Y3688D01*
G01X6985Y3557D01*
G01X6936Y3557D01*
G01X6903Y3541D01*
G01X6887Y3524D01*
G01X6870Y3475D01*
G01X6870Y3442D01*
G01X6887Y3393D01*
G01X6920Y3361D01*
G01X6969Y3344D01*
G01X7018Y3344D01*
G01X7067Y3361D01*
G01X7083Y3377D01*
G01X7100Y3410D01*
G01X6746Y3426D02*
G01X6762Y3410D01*
G01X6746Y3393D01*
G01X6730Y3410D01*
G01X6746Y3426D01*
G01X6589Y3688D02*
G01X6409Y3688D01*
G01X6507Y3557D01*
G01X6458Y3557D01*
G01X6425Y3541D01*
G01X6409Y3524D01*
G01X6393Y3475D01*
G01X6393Y3442D01*
G01X6409Y3393D01*
G01X6442Y3361D01*
G01X6491Y3344D01*
G01X6540Y3344D01*
G01X6589Y3361D01*
G01X6605Y3377D01*
G01X6622Y3410D01*
G01X6285Y3688D02*
G01X6154Y3344D01*
G01X6023Y3688D02*
G01X6154Y3344D01*
G01X5532Y3688D02*
G01X5565Y3688D01*
G01X5597Y3671D01*
G01X5614Y3622D01*
G01X5614Y3344D01*
G01X5663Y3573D02*
G01X5548Y3573D01*
G01X5424Y3688D02*
G01X5424Y3344D01*
G01X5120Y3573D02*
G01X5120Y3344D01*
G01X5120Y3524D02*
G01X5152Y3557D01*
G01X5185Y3573D01*
G01X5234Y3573D01*
G01X5267Y3557D01*
G01X5300Y3524D01*
G01X5316Y3475D01*
G01X5316Y3442D01*
G01X5300Y3393D01*
G01X5267Y3361D01*
G01X5234Y3344D01*
G01X5185Y3344D01*
G01X5152Y3361D01*
G01X5120Y3393D01*
G01X4962Y3688D02*
G01X4962Y3410D01*
G01X4946Y3361D01*
G01X4913Y3344D01*
G01X4881Y3344D01*
G01X5012Y3573D02*
G01X4897Y3573D01*
G01X4521Y3688D02*
G01X4390Y3344D01*
G01X4259Y3688D02*
G01X4390Y3344D01*
G01X4151Y3688D02*
G01X4151Y3344D01*
G01X4151Y3688D02*
G01X3938Y3688D01*
G01X4151Y3524D02*
G01X4020Y3524D01*
G01X4151Y3344D02*
G01X3938Y3344D01*
G01X3830Y3688D02*
G01X3830Y3344D01*
G01X3830Y3688D02*
G01X3683Y3688D01*
G01X3634Y3671D01*
G01X3617Y3655D01*
G01X3601Y3622D01*
G01X3601Y3590D01*
G01X3617Y3557D01*
G01X3634Y3541D01*
G01X3683Y3524D01*
G01X3830Y3524D01*
G01X3715Y3524D02*
G01X3601Y3344D01*
G01X3264Y3639D02*
G01X3297Y3671D01*
G01X3346Y3688D01*
G01X3411Y3688D01*
G01X3460Y3671D01*
G01X3493Y3639D01*
G01X3493Y3606D01*
G01X3477Y3573D01*
G01X3460Y3557D01*
G01X3427Y3541D01*
G01X3329Y3508D01*
G01X3297Y3491D01*
G01X3280Y3475D01*
G01X3264Y3442D01*
G01X3264Y3393D01*
G01X3297Y3361D01*
G01X3346Y3344D01*
G01X3411Y3344D01*
G01X3460Y3361D01*
G01X3493Y3393D01*
G01X3156Y3688D02*
G01X3156Y3344D01*
G01X2950Y3688D02*
G01X2982Y3671D01*
G01X3015Y3639D01*
G01X3032Y3606D01*
G01X3048Y3557D01*
G01X3048Y3475D01*
G01X3032Y3426D01*
G01X3015Y3393D01*
G01X2982Y3361D01*
G01X2950Y3344D01*
G01X2884Y3344D01*
G01X2851Y3361D01*
G01X2819Y3393D01*
G01X2802Y3426D01*
G01X2786Y3475D01*
G01X2786Y3557D01*
G01X2802Y3606D01*
G01X2819Y3639D01*
G01X2851Y3671D01*
G01X2884Y3688D01*
G01X2950Y3688D01*
G01X2678Y3688D02*
G01X2678Y3344D01*
G01X2678Y3688D02*
G01X2449Y3344D01*
G01X2449Y3688D02*
G01X2449Y3344D01*
G01X7100Y3113D02*
G01X7100Y2769D01*
G01X7100Y3113D02*
G01X6952Y3113D01*
G01X6903Y3096D01*
G01X6887Y3080D01*
G01X6870Y3047D01*
G01X6870Y3015D01*
G01X6887Y2982D01*
G01X6903Y2966D01*
G01X6952Y2949D01*
G01X7100Y2949D01*
G01X6985Y2949D02*
G01X6870Y2769D01*
G01X6762Y2900D02*
G01X6566Y2900D01*
G01X6566Y2933D01*
G01X6582Y2966D01*
G01X6599Y2982D01*
G01X6632Y2998D01*
G01X6681Y2998D01*
G01X6713Y2982D01*
G01X6746Y2949D01*
G01X6762Y2900D01*
G01X6762Y2867D01*
G01X6746Y2818D01*
G01X6713Y2786D01*
G01X6681Y2769D01*
G01X6632Y2769D01*
G01X6599Y2786D01*
G01X6566Y2818D01*
G01X6458Y2998D02*
G01X6360Y2769D01*
G01X6262Y2998D02*
G01X6360Y2769D01*
G01X6137Y2851D02*
G01X6154Y2835D01*
G01X6137Y2818D01*
G01X6121Y2835D01*
G01X6137Y2851D01*
G01X5761Y3113D02*
G01X5761Y2769D01*
G01X5761Y3113D02*
G01X5614Y3113D01*
G01X5565Y3096D01*
G01X5548Y3080D01*
G01X5532Y3047D01*
G01X5532Y3015D01*
G01X5548Y2982D01*
G01X5565Y2966D01*
G01X5614Y2949D01*
G01X5761Y2949D02*
G01X5614Y2949D01*
G01X5565Y2933D01*
G01X5548Y2916D01*
G01X5532Y2884D01*
G01X5532Y2835D01*
G01X5548Y2802D01*
G01X5565Y2786D01*
G01X5614Y2769D01*
G01X5761Y2769D01*
M00*
M02*
