G04 Layer: TopSolderMaskLayer*
G04 EasyEDA v6.4.7, 2021-01-18T10:53:27+01:00*
G04 59e0d5d531bc4477b05e4d448ace7ff7,8dc9eacff13444d6b60fd3cb587e6cd5,05*
G04 Gerber Generator version 0.2*
G04 Scale: 100 percent, Rotated: No, Reflected: No *
G04 Dimensions in inches *
G04 leading zeros omitted , absolute positions ,2 integer and 4 decimal *
%FSLAX24Y24*%
%MOIN*%
G90*
D02*

%ADD35C,0.061150*%
%ADD39R,0.048000X0.044000*%

%LPD*%
G36*
G01X3260Y3362D02*
G01X3260Y3619D01*
G01X3929Y3619D01*
G01X3929Y3362D01*
G01X3260Y3362D01*
G37*
G36*
G01X3260Y3106D02*
G01X3260Y3362D01*
G01X3929Y3362D01*
G01X3929Y3106D01*
G01X3260Y3106D01*
G37*
G36*
G01X3260Y2850D02*
G01X3260Y3107D01*
G01X3929Y3107D01*
G01X3929Y2850D01*
G01X3260Y2850D01*
G37*
G36*
G01X3260Y2594D02*
G01X3260Y2851D01*
G01X3929Y2851D01*
G01X3929Y2594D01*
G01X3260Y2594D01*
G37*
G36*
G01X3260Y2338D02*
G01X3260Y2595D01*
G01X3929Y2595D01*
G01X3929Y2338D01*
G01X3260Y2338D01*
G37*
G36*
G01X3260Y2082D02*
G01X3260Y2339D01*
G01X3929Y2339D01*
G01X3929Y2082D01*
G01X3260Y2082D01*
G37*
G36*
G01X3260Y1826D02*
G01X3260Y2083D01*
G01X3929Y2083D01*
G01X3929Y1826D01*
G01X3260Y1826D01*
G37*
G36*
G01X3260Y1570D02*
G01X3260Y1827D01*
G01X3929Y1827D01*
G01X3929Y1570D01*
G01X3260Y1570D01*
G37*
G36*
G01X5582Y1570D02*
G01X5582Y1827D01*
G01X6252Y1827D01*
G01X6252Y1570D01*
G01X5582Y1570D01*
G37*
G36*
G01X5582Y1826D02*
G01X5582Y2083D01*
G01X6252Y2083D01*
G01X6252Y1826D01*
G01X5582Y1826D01*
G37*
G36*
G01X5582Y2082D02*
G01X5582Y2339D01*
G01X6252Y2339D01*
G01X6252Y2082D01*
G01X5582Y2082D01*
G37*
G36*
G01X5582Y2338D02*
G01X5582Y2595D01*
G01X6252Y2595D01*
G01X6252Y2338D01*
G01X5582Y2338D01*
G37*
G36*
G01X5582Y2594D02*
G01X5582Y2851D01*
G01X6252Y2851D01*
G01X6252Y2594D01*
G01X5582Y2594D01*
G37*
G36*
G01X5582Y2850D02*
G01X5582Y3107D01*
G01X6252Y3107D01*
G01X6252Y2850D01*
G01X5582Y2850D01*
G37*
G36*
G01X5582Y3106D02*
G01X5582Y3362D01*
G01X6252Y3362D01*
G01X6252Y3106D01*
G01X5582Y3106D01*
G37*
G36*
G01X5582Y3362D02*
G01X5582Y3619D01*
G01X6252Y3619D01*
G01X6252Y3362D01*
G01X5582Y3362D01*
G37*
G36*
G01X732Y2831D02*
G01X732Y3167D01*
G01X1291Y3167D01*
G01X1291Y2831D01*
G01X732Y2831D01*
G37*
G36*
G01X732Y2456D02*
G01X732Y2793D01*
G01X1291Y2793D01*
G01X1291Y2456D01*
G01X732Y2456D01*
G37*
G36*
G01X732Y2082D02*
G01X732Y2419D01*
G01X1291Y2419D01*
G01X1291Y2082D01*
G01X732Y2082D01*
G37*
G36*
G01X1762Y2082D02*
G01X1762Y2419D01*
G01X2324Y2419D01*
G01X2324Y2082D01*
G01X1762Y2082D01*
G37*
G36*
G01X1762Y2831D02*
G01X1762Y3167D01*
G01X2324Y3167D01*
G01X2324Y2831D01*
G01X1762Y2831D01*
G37*
G36*
G01X1675Y438D02*
G01X1675Y1050D01*
G01X2286Y1050D01*
G01X2286Y438D01*
G01X1675Y438D01*
G37*
G54D35*
G01X2767Y744D03*
G01X3555Y744D03*
G01X4342Y744D03*
G36*
G01X138Y4907D02*
G01X138Y5577D01*
G01X810Y5577D01*
G01X810Y4907D01*
G01X138Y4907D01*
G37*
G36*
G01X138Y1267D02*
G01X138Y1937D01*
G01X810Y1937D01*
G01X810Y1267D01*
G01X138Y1267D01*
G37*
G36*
G01X138Y202D02*
G01X138Y873D01*
G01X810Y873D01*
G01X810Y202D01*
G01X138Y202D01*
G37*
G36*
G01X6653Y4298D02*
G01X6653Y4969D01*
G01X7325Y4969D01*
G01X7325Y4298D01*
G01X6653Y4298D01*
G37*
G36*
G01X6653Y381D02*
G01X6653Y1050D01*
G01X7325Y1050D01*
G01X7325Y381D01*
G01X6653Y381D01*
G37*
G36*
G01X3510Y4285D02*
G01X3510Y5164D01*
G01X4289Y5164D01*
G01X4289Y4285D01*
G01X3510Y4285D01*
G37*
G36*
G01X5210Y4285D02*
G01X5210Y5164D01*
G01X5989Y5164D01*
G01X5989Y4285D01*
G01X5210Y4285D01*
G37*
G36*
G01X6583Y3531D02*
G01X6583Y3966D01*
G01X7016Y3966D01*
G01X7016Y3531D01*
G01X6583Y3531D01*
G37*
G36*
G01X6583Y2783D02*
G01X6583Y3218D01*
G01X7016Y3218D01*
G01X7016Y2783D01*
G01X6583Y2783D01*
G37*
G36*
G01X6583Y2031D02*
G01X6583Y2466D01*
G01X7016Y2466D01*
G01X7016Y2031D01*
G01X6583Y2031D01*
G37*
G36*
G01X6583Y1283D02*
G01X6583Y1718D01*
G01X7016Y1718D01*
G01X7016Y1283D01*
G01X6583Y1283D01*
G37*
G36*
G01X809Y4157D02*
G01X809Y4592D01*
G01X1242Y4592D01*
G01X1242Y4157D01*
G01X809Y4157D01*
G37*
G36*
G01X1557Y4157D02*
G01X1557Y4592D01*
G01X1990Y4592D01*
G01X1990Y4157D01*
G01X1557Y4157D01*
G37*
G36*
G01X809Y3507D02*
G01X809Y3942D01*
G01X1242Y3942D01*
G01X1242Y3507D01*
G01X809Y3507D01*
G37*
G36*
G01X1557Y3507D02*
G01X1557Y3942D01*
G01X1990Y3942D01*
G01X1990Y3507D01*
G01X1557Y3507D01*
G37*
G54D39*
G01X379Y2925D03*
G01X379Y2324D03*
G36*
G01X2460Y2204D02*
G01X2460Y2644D01*
G01X2939Y2644D01*
G01X2939Y2204D01*
G01X2460Y2204D01*
G37*
G36*
G01X2460Y2806D02*
G01X2460Y3245D01*
G01X2939Y3245D01*
G01X2939Y2806D01*
G01X2460Y2806D01*
G37*
G36*
G01X2028Y1435D02*
G01X2028Y1914D01*
G01X2469Y1914D01*
G01X2469Y1435D01*
G01X2028Y1435D01*
G37*
G36*
G01X2630Y1435D02*
G01X2630Y1914D01*
G01X3071Y1914D01*
G01X3071Y1435D01*
G01X2630Y1435D01*
G37*
G36*
G01X5660Y304D02*
G01X5660Y743D01*
G01X6139Y743D01*
G01X6139Y304D01*
G01X5660Y304D01*
G37*
G36*
G01X5660Y906D02*
G01X5660Y1345D01*
G01X6139Y1345D01*
G01X6139Y906D01*
G01X5660Y906D01*
G37*
M00*
M02*
