G04 Layer: BottomLayer*
G04 EasyEDA v6.4.7, 2021-01-18T10:53:27+01:00*
G04 59e0d5d531bc4477b05e4d448ace7ff7,8dc9eacff13444d6b60fd3cb587e6cd5,05*
G04 Gerber Generator version 0.2*
G04 Scale: 100 percent, Rotated: No, Reflected: No *
G04 Dimensions in inches *
G04 leading zeros omitted , absolute positions ,2 integer and 4 decimal *
%FSLAX24Y24*%
%MOIN*%
G90*
D02*

%ADD11C,0.009840*%
%ADD13C,0.024000*%
%ADD21R,0.053150X0.053150*%
%ADD22C,0.053150*%

%LPD*%
G36*
G01X7359Y5624D02*
G01X140Y5624D01*
G01X135Y5623D01*
G01X129Y5622D01*
G01X124Y5620D01*
G01X114Y5614D01*
G01X110Y5610D01*
G01X104Y5600D01*
G01X102Y5595D01*
G01X100Y5583D01*
G01X100Y141D01*
G01X102Y129D01*
G01X104Y124D01*
G01X110Y114D01*
G01X114Y110D01*
G01X124Y104D01*
G01X129Y102D01*
G01X135Y101D01*
G01X140Y100D01*
G01X7359Y100D01*
G01X7364Y101D01*
G01X7370Y102D01*
G01X7375Y104D01*
G01X7385Y110D01*
G01X7389Y114D01*
G01X7395Y124D01*
G01X7397Y129D01*
G01X7399Y141D01*
G01X7399Y5583D01*
G01X7397Y5595D01*
G01X7395Y5600D01*
G01X7389Y5610D01*
G01X7385Y5614D01*
G01X7375Y5620D01*
G01X7370Y5622D01*
G01X7364Y5623D01*
G01X7359Y5624D01*
G37*

%LPC*%
G36*
G01X1822Y1111D02*
G01X1705Y1111D01*
G01X1687Y1107D01*
G01X1678Y1104D01*
G01X1669Y1100D01*
G01X1661Y1096D01*
G01X1653Y1091D01*
G01X1646Y1085D01*
G01X1634Y1071D01*
G01X1628Y1063D01*
G01X1620Y1047D01*
G01X1617Y1038D01*
G01X1615Y1029D01*
G01X1614Y1019D01*
G01X1613Y1010D01*
G01X1613Y902D01*
G01X1822Y902D01*
G01X1822Y1111D01*
G37*
G36*
G01X1822Y587D02*
G01X1613Y587D01*
G01X1613Y479D01*
G01X1614Y469D01*
G01X1615Y460D01*
G01X1617Y451D01*
G01X1620Y442D01*
G01X1624Y433D01*
G01X1628Y425D01*
G01X1646Y404D01*
G01X1653Y398D01*
G01X1669Y388D01*
G01X1678Y384D01*
G01X1687Y381D01*
G01X1696Y379D01*
G01X1714Y377D01*
G01X1822Y377D01*
G01X1822Y587D01*
G37*
G36*
G01X5330Y3455D02*
G01X5303Y3455D01*
G01X5289Y3454D01*
G01X5276Y3452D01*
G01X5263Y3449D01*
G01X5237Y3441D01*
G01X5224Y3435D01*
G01X5212Y3429D01*
G01X5200Y3422D01*
G01X5189Y3415D01*
G01X5178Y3406D01*
G01X5168Y3398D01*
G01X5158Y3388D01*
G01X5140Y3368D01*
G01X5133Y3356D01*
G01X5125Y3345D01*
G01X5119Y3333D01*
G01X5113Y3320D01*
G01X5108Y3308D01*
G01X5104Y3295D01*
G01X5101Y3282D01*
G01X5098Y3268D01*
G01X5097Y3255D01*
G01X5096Y3241D01*
G01X5095Y3235D01*
G01X5094Y3230D01*
G01X5091Y3224D01*
G01X5088Y3219D01*
G01X5084Y3214D01*
G01X3449Y1579D01*
G01X3433Y1561D01*
G01X3421Y1541D01*
G01X3416Y1530D01*
G01X3412Y1519D01*
G01X3409Y1508D01*
G01X3405Y1484D01*
G01X3405Y1104D01*
G01X3403Y1092D01*
G01X3400Y1086D01*
G01X3397Y1081D01*
G01X3393Y1076D01*
G01X3389Y1072D01*
G01X3384Y1068D01*
G01X3368Y1060D01*
G01X3338Y1040D01*
G01X3310Y1018D01*
G01X3297Y1005D01*
G01X3273Y979D01*
G01X3262Y965D01*
G01X3251Y950D01*
G01X3242Y935D01*
G01X3233Y919D01*
G01X3225Y904D01*
G01X3217Y887D01*
G01X3211Y871D01*
G01X3205Y854D01*
G01X3200Y837D01*
G01X3198Y831D01*
G01X3192Y821D01*
G01X3188Y817D01*
G01X3183Y813D01*
G01X3178Y810D01*
G01X3173Y808D01*
G01X3161Y806D01*
G01X3155Y807D01*
G01X3150Y808D01*
G01X3144Y810D01*
G01X3139Y813D01*
G01X3135Y817D01*
G01X3130Y821D01*
G01X3124Y831D01*
G01X3123Y837D01*
G01X3118Y853D01*
G01X3112Y869D01*
G01X3106Y886D01*
G01X3099Y901D01*
G01X3091Y917D01*
G01X3083Y932D01*
G01X3074Y946D01*
G01X3064Y961D01*
G01X3042Y987D01*
G01X3030Y1000D01*
G01X3018Y1012D01*
G01X3005Y1024D01*
G01X2992Y1034D01*
G01X2978Y1045D01*
G01X2964Y1054D01*
G01X2949Y1063D01*
G01X2934Y1071D01*
G01X2918Y1079D01*
G01X2870Y1097D01*
G01X2836Y1105D01*
G01X2819Y1107D01*
G01X2802Y1110D01*
G01X2785Y1111D01*
G01X2750Y1111D01*
G01X2714Y1107D01*
G01X2697Y1104D01*
G01X2679Y1100D01*
G01X2662Y1096D01*
G01X2646Y1090D01*
G01X2629Y1084D01*
G01X2613Y1077D01*
G01X2597Y1069D01*
G01X2581Y1060D01*
G01X2566Y1051D01*
G01X2551Y1041D01*
G01X2537Y1030D01*
G01X2511Y1006D01*
G01X2499Y994D01*
G01X2487Y980D01*
G01X2476Y967D01*
G01X2465Y952D01*
G01X2455Y937D01*
G01X2447Y922D01*
G01X2438Y906D01*
G01X2424Y874D01*
G01X2422Y868D01*
G01X2418Y863D01*
G01X2418Y856D01*
G01X2416Y850D01*
G01X2408Y816D01*
G01X2402Y780D01*
G01X2401Y762D01*
G01X2401Y726D01*
G01X2402Y708D01*
G01X2405Y691D01*
G01X2408Y673D01*
G01X2412Y655D01*
G01X2416Y638D01*
G01X2418Y632D01*
G01X2418Y626D01*
G01X2422Y621D01*
G01X2424Y615D01*
G01X2431Y599D01*
G01X2438Y582D01*
G01X2447Y567D01*
G01X2455Y551D01*
G01X2465Y537D01*
G01X2476Y522D01*
G01X2487Y508D01*
G01X2511Y482D01*
G01X2524Y470D01*
G01X2537Y459D01*
G01X2551Y448D01*
G01X2581Y428D01*
G01X2613Y412D01*
G01X2629Y405D01*
G01X2646Y399D01*
G01X2662Y393D01*
G01X2679Y388D01*
G01X2697Y385D01*
G01X2714Y381D01*
G01X2732Y379D01*
G01X2750Y378D01*
G01X2767Y377D01*
G01X2785Y378D01*
G01X2802Y379D01*
G01X2819Y381D01*
G01X2836Y384D01*
G01X2870Y392D01*
G01X2886Y397D01*
G01X2902Y403D01*
G01X2934Y417D01*
G01X2949Y425D01*
G01X2964Y435D01*
G01X2978Y444D01*
G01X2992Y454D01*
G01X3018Y476D01*
G01X3030Y489D01*
G01X3042Y501D01*
G01X3053Y514D01*
G01X3064Y528D01*
G01X3074Y542D01*
G01X3083Y557D01*
G01X3099Y587D01*
G01X3106Y603D01*
G01X3112Y619D01*
G01X3118Y636D01*
G01X3123Y652D01*
G01X3124Y658D01*
G01X3130Y668D01*
G01X3135Y672D01*
G01X3139Y675D01*
G01X3144Y678D01*
G01X3150Y680D01*
G01X3155Y682D01*
G01X3167Y682D01*
G01X3173Y680D01*
G01X3178Y678D01*
G01X3188Y672D01*
G01X3192Y668D01*
G01X3198Y658D01*
G01X3200Y652D01*
G01X3205Y636D01*
G01X3210Y619D01*
G01X3216Y603D01*
G01X3224Y587D01*
G01X3231Y572D01*
G01X3249Y542D01*
G01X3269Y514D01*
G01X3280Y501D01*
G01X3292Y489D01*
G01X3304Y476D01*
G01X3330Y454D01*
G01X3344Y444D01*
G01X3359Y435D01*
G01X3374Y425D01*
G01X3389Y417D01*
G01X3404Y410D01*
G01X3420Y403D01*
G01X3436Y397D01*
G01X3453Y392D01*
G01X3470Y388D01*
G01X3486Y384D01*
G01X3503Y381D01*
G01X3521Y379D01*
G01X3555Y377D01*
G01X3589Y379D01*
G01X3607Y381D01*
G01X3624Y384D01*
G01X3640Y388D01*
G01X3657Y392D01*
G01X3674Y397D01*
G01X3690Y403D01*
G01X3705Y410D01*
G01X3721Y417D01*
G01X3736Y425D01*
G01X3751Y435D01*
G01X3765Y444D01*
G01X3779Y454D01*
G01X3793Y465D01*
G01X3805Y476D01*
G01X3818Y489D01*
G01X3829Y501D01*
G01X3841Y514D01*
G01X3861Y542D01*
G01X3879Y572D01*
G01X3886Y587D01*
G01X3900Y619D01*
G01X3905Y636D01*
G01X3910Y652D01*
G01X3912Y658D01*
G01X3914Y663D01*
G01X3918Y668D01*
G01X3922Y672D01*
G01X3926Y675D01*
G01X3932Y678D01*
G01X3937Y680D01*
G01X3943Y682D01*
G01X3954Y682D01*
G01X3960Y680D01*
G01X3965Y678D01*
G01X3971Y675D01*
G01X3975Y672D01*
G01X3979Y668D01*
G01X3983Y663D01*
G01X3986Y658D01*
G01X3987Y652D01*
G01X3992Y636D01*
G01X3998Y619D01*
G01X4004Y603D01*
G01X4011Y587D01*
G01X4027Y557D01*
G01X4036Y542D01*
G01X4046Y528D01*
G01X4057Y514D01*
G01X4068Y501D01*
G01X4079Y489D01*
G01X4092Y476D01*
G01X4104Y465D01*
G01X4118Y454D01*
G01X4132Y444D01*
G01X4146Y435D01*
G01X4161Y425D01*
G01X4176Y417D01*
G01X4208Y403D01*
G01X4224Y397D01*
G01X4240Y392D01*
G01X4274Y384D01*
G01X4291Y381D01*
G01X4308Y379D01*
G01X4342Y377D01*
G01X4360Y378D01*
G01X4377Y379D01*
G01X4395Y381D01*
G01X4412Y384D01*
G01X4429Y388D01*
G01X4446Y393D01*
G01X4462Y398D01*
G01X4479Y404D01*
G01X4495Y411D01*
G01X4510Y418D01*
G01X4526Y427D01*
G01X4540Y436D01*
G01X4555Y445D01*
G01X4583Y467D01*
G01X4595Y479D01*
G01X4608Y491D01*
G01X4620Y504D01*
G01X4630Y518D01*
G01X4641Y531D01*
G01X4651Y546D01*
G01X4660Y561D01*
G01X4668Y576D01*
G01X4676Y592D01*
G01X4683Y608D01*
G01X4689Y624D01*
G01X4699Y658D01*
G01X4705Y692D01*
G01X4707Y710D01*
G01X4709Y727D01*
G01X4709Y762D01*
G01X4708Y779D01*
G01X4699Y830D01*
G01X4695Y847D01*
G01X4683Y879D01*
G01X4669Y911D01*
G01X4661Y926D01*
G01X4652Y941D01*
G01X4632Y969D01*
G01X4610Y995D01*
G01X4598Y1008D01*
G01X4585Y1019D01*
G01X4572Y1031D01*
G01X4544Y1051D01*
G01X4529Y1060D01*
G01X4514Y1068D01*
G01X4504Y1076D01*
G01X4500Y1081D01*
G01X4497Y1086D01*
G01X4493Y1098D01*
G01X4492Y1104D01*
G01X4492Y1768D01*
G01X4493Y1774D01*
G01X4497Y1786D01*
G01X4500Y1791D01*
G01X4504Y1796D01*
G01X5297Y2588D01*
G01X5301Y2592D01*
G01X5306Y2595D01*
G01X5312Y2598D01*
G01X5317Y2600D01*
G01X5324Y2600D01*
G01X5337Y2601D01*
G01X5351Y2603D01*
G01X5364Y2605D01*
G01X5377Y2608D01*
G01X5390Y2612D01*
G01X5403Y2618D01*
G01X5415Y2623D01*
G01X5439Y2637D01*
G01X5461Y2653D01*
G01X5471Y2662D01*
G01X5489Y2682D01*
G01X5497Y2693D01*
G01X5505Y2705D01*
G01X5512Y2717D01*
G01X5517Y2729D01*
G01X5523Y2741D01*
G01X5531Y2767D01*
G01X5534Y2780D01*
G01X5536Y2794D01*
G01X5537Y2807D01*
G01X5538Y2821D01*
G01X5537Y2835D01*
G01X5536Y2848D01*
G01X5534Y2861D01*
G01X5531Y2874D01*
G01X5523Y2900D01*
G01X5518Y2912D01*
G01X5512Y2925D01*
G01X5505Y2936D01*
G01X5498Y2948D01*
G01X5490Y2958D01*
G01X5481Y2969D01*
G01X5472Y2978D01*
G01X5452Y2996D01*
G01X5447Y3000D01*
G01X5443Y3005D01*
G01X5440Y3010D01*
G01X5438Y3016D01*
G01X5436Y3028D01*
G01X5438Y3040D01*
G01X5440Y3045D01*
G01X5443Y3050D01*
G01X5447Y3055D01*
G01X5452Y3059D01*
G01X5472Y3077D01*
G01X5490Y3097D01*
G01X5498Y3108D01*
G01X5505Y3119D01*
G01X5512Y3131D01*
G01X5518Y3143D01*
G01X5523Y3155D01*
G01X5531Y3181D01*
G01X5534Y3194D01*
G01X5536Y3207D01*
G01X5538Y3235D01*
G01X5536Y3261D01*
G01X5534Y3274D01*
G01X5528Y3300D01*
G01X5523Y3313D01*
G01X5518Y3325D01*
G01X5506Y3349D01*
G01X5499Y3360D01*
G01X5491Y3371D01*
G01X5473Y3391D01*
G01X5463Y3400D01*
G01X5453Y3408D01*
G01X5431Y3424D01*
G01X5420Y3430D01*
G01X5408Y3436D01*
G01X5395Y3441D01*
G01X5383Y3445D01*
G01X5370Y3449D01*
G01X5357Y3452D01*
G01X5343Y3454D01*
G01X5330Y3455D01*
G37*
G36*
G01X2255Y1111D02*
G01X2138Y1111D01*
G01X2138Y902D01*
G01X2347Y902D01*
G01X2347Y1019D01*
G01X2345Y1029D01*
G01X2343Y1038D01*
G01X2340Y1047D01*
G01X2332Y1063D01*
G01X2326Y1071D01*
G01X2321Y1078D01*
G01X2314Y1085D01*
G01X2307Y1091D01*
G01X2299Y1096D01*
G01X2291Y1100D01*
G01X2282Y1104D01*
G01X2274Y1107D01*
G01X2264Y1109D01*
G01X2255Y1111D01*
G37*
G36*
G01X2347Y587D02*
G01X2138Y587D01*
G01X2138Y377D01*
G01X2246Y377D01*
G01X2264Y379D01*
G01X2274Y381D01*
G01X2282Y384D01*
G01X2291Y388D01*
G01X2307Y398D01*
G01X2314Y404D01*
G01X2321Y411D01*
G01X2326Y418D01*
G01X2332Y425D01*
G01X2336Y433D01*
G01X2340Y442D01*
G01X2343Y451D01*
G01X2347Y469D01*
G01X2347Y587D01*
G37*

%LPD*%
G36*
G01X4158Y1841D02*
G01X4152Y1841D01*
G01X4140Y1839D01*
G01X4134Y1837D01*
G01X4128Y1833D01*
G01X3717Y1422D01*
G01X3713Y1417D01*
G01X3710Y1412D01*
G01X3707Y1406D01*
G01X3705Y1400D01*
G01X3705Y1098D01*
G01X3709Y1086D01*
G01X3712Y1081D01*
G01X3716Y1076D01*
G01X3726Y1068D01*
G01X3742Y1060D01*
G01X3772Y1040D01*
G01X3800Y1018D01*
G01X3813Y1005D01*
G01X3837Y979D01*
G01X3848Y965D01*
G01X3859Y950D01*
G01X3868Y935D01*
G01X3877Y919D01*
G01X3885Y904D01*
G01X3893Y887D01*
G01X3899Y871D01*
G01X3905Y854D01*
G01X3910Y837D01*
G01X3912Y831D01*
G01X3914Y826D01*
G01X3918Y821D01*
G01X3926Y813D01*
G01X3932Y810D01*
G01X3937Y808D01*
G01X3949Y806D01*
G01X3954Y807D01*
G01X3960Y808D01*
G01X3965Y810D01*
G01X3971Y813D01*
G01X3979Y821D01*
G01X3983Y826D01*
G01X3986Y831D01*
G01X3987Y837D01*
G01X3992Y854D01*
G01X3998Y871D01*
G01X4004Y887D01*
G01X4012Y904D01*
G01X4020Y919D01*
G01X4029Y935D01*
G01X4049Y965D01*
G01X4060Y979D01*
G01X4072Y992D01*
G01X4098Y1018D01*
G01X4111Y1029D01*
G01X4125Y1040D01*
G01X4155Y1060D01*
G01X4171Y1068D01*
G01X4181Y1076D01*
G01X4185Y1081D01*
G01X4188Y1086D01*
G01X4192Y1098D01*
G01X4192Y1806D01*
G01X4188Y1818D01*
G01X4186Y1823D01*
G01X4174Y1835D01*
G01X4169Y1837D01*
G01X4163Y1839D01*
G01X4158Y1841D01*
G37*

%LPD*%
G54D11*
G01X4342Y744D02*
G01X4342Y1847D01*
G01X5317Y2821D01*
G01X3555Y744D02*
G01X3555Y1473D01*
G01X5317Y3234D01*
G54D21*
G01X1980Y744D03*
G54D22*
G01X2767Y744D03*
G01X3555Y744D03*
G01X4342Y744D03*
G54D13*
G01X5504Y2467D03*
G01X5550Y525D03*
G01X450Y3625D03*
G01X1900Y1675D03*
G01X1685Y2250D03*
G01X5317Y3234D03*
G01X5317Y2821D03*
M00*
M02*
