G04 Layer: TopPasteMaskLayer*
G04 EasyEDA v6.4.7, 2021-01-18T10:53:27+01:00*
G04 aa4ddc66a76449b48dffd980d3e90acf,8dc9eacff13444d6b60fd3cb587e6cd5,01*
G04 Gerber Generator version 0.2*
G04 Scale: 100 percent, Rotated: No, Reflected: No *
G04 Dimensions in inches *
G04 leading zeros omitted , absolute positions ,2 integer and 4 decimal *
%FSLAX24Y24*%
%MOIN*%
G90*
D02*

%ADD15R,0.100000X0.050000*%

%LPD*%
G36*
G01X1940Y2696D02*
G01X1940Y2480D01*
G01X1468Y2480D01*
G01X1468Y2696D01*
G01X1940Y2696D01*
G37*
G36*
G01X1940Y2322D02*
G01X1940Y2106D01*
G01X1468Y2106D01*
G01X1468Y2322D01*
G01X1940Y2322D01*
G37*
G36*
G01X1940Y1948D02*
G01X1940Y1732D01*
G01X1468Y1732D01*
G01X1468Y1948D01*
G01X1940Y1948D01*
G37*
G36*
G01X2964Y1948D02*
G01X2964Y1732D01*
G01X2492Y1732D01*
G01X2492Y1948D01*
G01X2964Y1948D01*
G37*
G36*
G01X2964Y2696D02*
G01X2964Y2480D01*
G01X2492Y2480D01*
G01X2492Y2696D01*
G01X2964Y2696D01*
G37*
G36*
G01X2942Y2952D02*
G01X2529Y2952D01*
G01X2529Y3378D01*
G01X2942Y3378D01*
G01X2942Y2952D01*
G37*
G36*
G01X2253Y2952D02*
G01X1840Y2952D01*
G01X1840Y3378D01*
G01X2253Y3378D01*
G01X2253Y2952D01*
G37*
G36*
G01X1263Y2291D02*
G01X850Y2291D01*
G01X850Y2716D01*
G01X1263Y2716D01*
G01X1263Y2291D01*
G37*
G36*
G01X574Y2291D02*
G01X161Y2291D01*
G01X161Y2716D01*
G01X574Y2716D01*
G01X574Y2291D01*
G37*
G36*
G01X7507Y1378D02*
G01X7114Y1378D01*
G01X7114Y1811D01*
G01X7507Y1811D01*
G01X7507Y1378D01*
G37*
G36*
G01X6838Y1378D02*
G01X6444Y1378D01*
G01X6444Y1811D01*
G01X6838Y1811D01*
G01X6838Y1378D01*
G37*
G36*
G01X3534Y3512D02*
G01X3534Y3392D01*
G01X3144Y3392D01*
G01X3144Y3512D01*
G01X3534Y3512D01*
G37*
G36*
G01X3534Y3256D02*
G01X3534Y3136D01*
G01X3144Y3136D01*
G01X3144Y3256D01*
G01X3534Y3256D01*
G37*
G36*
G01X3534Y3000D02*
G01X3534Y2880D01*
G01X3144Y2880D01*
G01X3144Y3000D01*
G01X3534Y3000D01*
G37*
G36*
G01X3534Y2745D02*
G01X3534Y2625D01*
G01X3144Y2625D01*
G01X3144Y2745D01*
G01X3534Y2745D01*
G37*
G36*
G01X3534Y2489D02*
G01X3534Y2369D01*
G01X3144Y2369D01*
G01X3144Y2489D01*
G01X3534Y2489D01*
G37*
G36*
G01X3534Y2233D02*
G01X3534Y2113D01*
G01X3144Y2113D01*
G01X3144Y2233D01*
G01X3534Y2233D01*
G37*
G36*
G01X3534Y1977D02*
G01X3534Y1857D01*
G01X3144Y1857D01*
G01X3144Y1977D01*
G01X3534Y1977D01*
G37*
G36*
G01X5831Y1977D02*
G01X5831Y1857D01*
G01X5441Y1857D01*
G01X5441Y1977D01*
G01X5831Y1977D01*
G37*
G36*
G01X5831Y2233D02*
G01X5831Y2113D01*
G01X5441Y2113D01*
G01X5441Y2233D01*
G01X5831Y2233D01*
G37*
G36*
G01X5831Y2489D02*
G01X5831Y2369D01*
G01X5441Y2369D01*
G01X5441Y2489D01*
G01X5831Y2489D01*
G37*
G36*
G01X5831Y2745D02*
G01X5831Y2625D01*
G01X5441Y2625D01*
G01X5441Y2745D01*
G01X5831Y2745D01*
G37*
G36*
G01X5831Y3000D02*
G01X5831Y2880D01*
G01X5441Y2880D01*
G01X5441Y3000D01*
G01X5831Y3000D01*
G37*
G36*
G01X5831Y3256D02*
G01X5831Y3136D01*
G01X5441Y3136D01*
G01X5441Y3256D01*
G01X5831Y3256D01*
G37*
G36*
G01X5831Y3512D02*
G01X5831Y3392D01*
G01X5441Y3392D01*
G01X5441Y3512D01*
G01X5831Y3512D01*
G37*
G36*
G01X649Y5578D02*
G01X649Y5185D01*
G01X216Y5185D01*
G01X216Y5578D01*
G01X649Y5578D01*
G37*
G36*
G01X649Y4909D02*
G01X649Y4515D01*
G01X216Y4515D01*
G01X216Y4909D01*
G01X649Y4909D01*
G37*
G36*
G01X1299Y5578D02*
G01X1299Y5185D01*
G01X866Y5185D01*
G01X866Y5578D01*
G01X1299Y5578D01*
G37*
G36*
G01X1299Y4909D02*
G01X1299Y4515D01*
G01X866Y4515D01*
G01X866Y4909D01*
G01X1299Y4909D01*
G37*
G54D15*
G01X7007Y933D03*
G36*
G01X169Y4313D02*
G01X1169Y4313D01*
G01X1169Y3812D01*
G01X169Y3812D01*
G01X169Y4313D01*
G37*
G36*
G01X169Y651D02*
G01X1169Y651D01*
G01X1169Y151D01*
G01X169Y151D01*
G01X169Y651D01*
G37*
G01X669Y3118D03*
G36*
G01X1940Y1395D02*
G01X1940Y1179D01*
G01X1468Y1179D01*
G01X1468Y1395D01*
G01X1940Y1395D01*
G37*
G36*
G01X1940Y1021D02*
G01X1940Y805D01*
G01X1468Y805D01*
G01X1468Y1021D01*
G01X1940Y1021D01*
G37*
G36*
G01X1940Y647D02*
G01X1940Y431D01*
G01X1468Y431D01*
G01X1468Y647D01*
G01X1940Y647D01*
G37*
G36*
G01X2964Y647D02*
G01X2964Y431D01*
G01X2492Y431D01*
G01X2492Y647D01*
G01X2964Y647D01*
G37*
G36*
G01X2964Y1395D02*
G01X2964Y1179D01*
G01X2492Y1179D01*
G01X2492Y1395D01*
G01X2964Y1395D01*
G37*
G36*
G01X3149Y1598D02*
G01X3562Y1598D01*
G01X3562Y1173D01*
G01X3149Y1173D01*
G01X3149Y1598D01*
G37*
G36*
G01X3838Y1598D02*
G01X4251Y1598D01*
G01X4251Y1173D01*
G01X3838Y1173D01*
G01X3838Y1598D01*
G37*
G36*
G01X1263Y1173D02*
G01X850Y1173D01*
G01X850Y1598D01*
G01X1263Y1598D01*
G01X1263Y1173D01*
G37*
G36*
G01X574Y1173D02*
G01X161Y1173D01*
G01X161Y1598D01*
G01X574Y1598D01*
G01X574Y1173D01*
G37*
G36*
G01X6496Y3049D02*
G01X6496Y2832D01*
G01X6023Y2832D01*
G01X6023Y3049D01*
G01X6496Y3049D01*
G37*
G36*
G01X6496Y2675D02*
G01X6496Y2458D01*
G01X6023Y2458D01*
G01X6023Y2675D01*
G01X6496Y2675D01*
G37*
G36*
G01X6496Y2301D02*
G01X6496Y2084D01*
G01X6023Y2084D01*
G01X6023Y2301D01*
G01X6496Y2301D01*
G37*
G36*
G01X7519Y2301D02*
G01X7519Y2084D01*
G01X7047Y2084D01*
G01X7047Y2301D01*
G01X7519Y2301D01*
G37*
G36*
G01X7519Y3049D02*
G01X7519Y2832D01*
G01X7047Y2832D01*
G01X7047Y3049D01*
G01X7519Y3049D01*
G37*
G36*
G01X7480Y3259D02*
G01X7066Y3259D01*
G01X7066Y3685D01*
G01X7480Y3685D01*
G01X7480Y3259D01*
G37*
G36*
G01X6791Y3259D02*
G01X6377Y3259D01*
G01X6377Y3685D01*
G01X6791Y3685D01*
G01X6791Y3259D01*
G37*
G36*
G01X3290Y5018D02*
G01X3990Y5018D01*
G01X3990Y4218D01*
G01X3290Y4218D01*
G01X3290Y5018D01*
G37*
G36*
G01X4990Y5018D02*
G01X5690Y5018D01*
G01X5690Y4218D01*
G01X4990Y4218D01*
G01X4990Y5018D01*
G37*
M00*
M02*
