G04 Layer: BottomLayer*
G04 EasyEDA v6.4.7, 2021-01-18T10:53:27+01:00*
G04 aa4ddc66a76449b48dffd980d3e90acf,8dc9eacff13444d6b60fd3cb587e6cd5,01*
G04 Gerber Generator version 0.2*
G04 Scale: 100 percent, Rotated: No, Reflected: No *
G04 Dimensions in inches *
G04 leading zeros omitted , absolute positions ,2 integer and 4 decimal *
%FSLAX24Y24*%
%MOIN*%
G90*
D02*

%ADD12C,0.024000*%
%ADD14C,0.029750*%
%ADD18C,0.054000*%

%LPD*%
G36*
G01X210Y5694D02*
G01X95Y5694D01*
G01X89Y5693D01*
G01X84Y5691D01*
G01X74Y5685D01*
G01X70Y5681D01*
G01X64Y5671D01*
G01X62Y5666D01*
G01X61Y5660D01*
G01X61Y5545D01*
G01X62Y5539D01*
G01X64Y5534D01*
G01X67Y5529D01*
G01X70Y5525D01*
G01X74Y5521D01*
G01X79Y5517D01*
G01X84Y5514D01*
G01X89Y5512D01*
G01X95Y5511D01*
G01X107Y5511D01*
G01X119Y5515D01*
G01X124Y5518D01*
G01X133Y5527D01*
G01X145Y5543D01*
G01X157Y5557D01*
G01X170Y5572D01*
G01X183Y5585D01*
G01X198Y5598D01*
G01X212Y5610D01*
G01X228Y5622D01*
G01X237Y5631D01*
G01X240Y5636D01*
G01X244Y5648D01*
G01X244Y5660D01*
G01X243Y5666D01*
G01X241Y5671D01*
G01X238Y5676D01*
G01X234Y5681D01*
G01X230Y5685D01*
G01X226Y5688D01*
G01X221Y5691D01*
G01X215Y5693D01*
G01X210Y5694D01*
G37*

%LPD*%
G36*
G01X7581Y5694D02*
G01X7427Y5694D01*
G01X7421Y5693D01*
G01X7416Y5691D01*
G01X7406Y5685D01*
G01X7402Y5681D01*
G01X7396Y5671D01*
G01X7394Y5666D01*
G01X7392Y5654D01*
G01X7394Y5642D01*
G01X7397Y5636D01*
G01X7400Y5631D01*
G01X7404Y5626D01*
G01X7409Y5622D01*
G01X7424Y5611D01*
G01X7438Y5599D01*
G01X7452Y5586D01*
G01X7478Y5560D01*
G01X7490Y5546D01*
G01X7512Y5516D01*
G01X7522Y5500D01*
G01X7531Y5484D01*
G01X7540Y5467D01*
G01X7543Y5462D01*
G01X7547Y5457D01*
G01X7557Y5449D01*
G01X7569Y5445D01*
G01X7581Y5445D01*
G01X7587Y5447D01*
G01X7597Y5451D01*
G01X7602Y5455D01*
G01X7606Y5459D01*
G01X7609Y5463D01*
G01X7612Y5468D01*
G01X7614Y5474D01*
G01X7615Y5479D01*
G01X7616Y5485D01*
G01X7616Y5654D01*
G01X7614Y5666D01*
G01X7612Y5671D01*
G01X7606Y5681D01*
G01X7602Y5685D01*
G01X7592Y5691D01*
G01X7587Y5693D01*
G01X7581Y5694D01*
G37*

%LPD*%
G36*
G01X7101Y5259D02*
G01X536Y5259D01*
G01X530Y5258D01*
G01X525Y5257D01*
G01X519Y5255D01*
G01X514Y5252D01*
G01X510Y5249D01*
G01X506Y5245D01*
G01X502Y5240D01*
G01X498Y5230D01*
G01X496Y5224D01*
G01X496Y3859D01*
G01X498Y3853D01*
G01X502Y3843D01*
G01X506Y3838D01*
G01X510Y3834D01*
G01X514Y3831D01*
G01X519Y3828D01*
G01X525Y3826D01*
G01X530Y3825D01*
G01X536Y3824D01*
G01X543Y3825D01*
G01X549Y3826D01*
G01X565Y3831D01*
G01X581Y3835D01*
G01X597Y3838D01*
G01X629Y3840D01*
G01X644Y3839D01*
G01X658Y3838D01*
G01X673Y3836D01*
G01X687Y3833D01*
G01X715Y3825D01*
G01X741Y3813D01*
G01X767Y3799D01*
G01X779Y3790D01*
G01X801Y3772D01*
G01X811Y3761D01*
G01X821Y3751D01*
G01X830Y3739D01*
G01X846Y3715D01*
G01X853Y3702D01*
G01X859Y3689D01*
G01X864Y3675D01*
G01X869Y3662D01*
G01X872Y3648D01*
G01X875Y3633D01*
G01X879Y3605D01*
G01X879Y3575D01*
G01X875Y3547D01*
G01X872Y3532D01*
G01X869Y3518D01*
G01X864Y3505D01*
G01X859Y3491D01*
G01X853Y3478D01*
G01X846Y3465D01*
G01X830Y3441D01*
G01X821Y3429D01*
G01X811Y3419D01*
G01X801Y3408D01*
G01X779Y3390D01*
G01X767Y3381D01*
G01X741Y3367D01*
G01X715Y3355D01*
G01X687Y3347D01*
G01X673Y3344D01*
G01X658Y3342D01*
G01X644Y3341D01*
G01X629Y3340D01*
G01X597Y3342D01*
G01X582Y3345D01*
G01X566Y3348D01*
G01X551Y3353D01*
G01X521Y3365D01*
G01X515Y3367D01*
G01X510Y3369D01*
G01X453Y3369D01*
G01X434Y3371D01*
G01X416Y3373D01*
G01X397Y3376D01*
G01X379Y3380D01*
G01X360Y3384D01*
G01X342Y3390D01*
G01X325Y3396D01*
G01X307Y3403D01*
G01X273Y3419D01*
G01X225Y3449D01*
G01X211Y3461D01*
G01X196Y3473D01*
G01X182Y3486D01*
G01X169Y3499D01*
G01X156Y3513D01*
G01X144Y3527D01*
G01X133Y3542D01*
G01X129Y3547D01*
G01X119Y3555D01*
G01X107Y3559D01*
G01X95Y3559D01*
G01X89Y3557D01*
G01X79Y3553D01*
G01X74Y3549D01*
G01X70Y3545D01*
G01X67Y3541D01*
G01X64Y3536D01*
G01X62Y3530D01*
G01X61Y3525D01*
G01X61Y95D01*
G01X62Y89D01*
G01X64Y84D01*
G01X70Y74D01*
G01X74Y70D01*
G01X84Y64D01*
G01X89Y62D01*
G01X95Y61D01*
G01X101Y61D01*
G01X101Y60D01*
G01X7576Y61D01*
G01X7581Y61D01*
G01X7587Y62D01*
G01X7592Y64D01*
G01X7602Y70D01*
G01X7606Y74D01*
G01X7612Y84D01*
G01X7614Y89D01*
G01X7615Y95D01*
G01X7616Y100D01*
G01X7616Y3749D01*
G01X7615Y3755D01*
G01X7614Y3760D01*
G01X7612Y3766D01*
G01X7609Y3771D01*
G01X7606Y3775D01*
G01X7602Y3779D01*
G01X7597Y3783D01*
G01X7587Y3787D01*
G01X7581Y3789D01*
G01X7569Y3789D01*
G01X7563Y3787D01*
G01X7556Y3784D01*
G01X7551Y3781D01*
G01X7546Y3776D01*
G01X7536Y3765D01*
G01X7525Y3755D01*
G01X7501Y3737D01*
G01X7489Y3729D01*
G01X7476Y3722D01*
G01X7462Y3716D01*
G01X7449Y3710D01*
G01X7435Y3706D01*
G01X7420Y3702D01*
G01X7406Y3699D01*
G01X7391Y3696D01*
G01X7376Y3695D01*
G01X7347Y3695D01*
G01X7333Y3696D01*
G01X7318Y3698D01*
G01X7304Y3701D01*
G01X7290Y3705D01*
G01X7276Y3710D01*
G01X7263Y3715D01*
G01X7250Y3721D01*
G01X7237Y3728D01*
G01X7224Y3736D01*
G01X7212Y3744D01*
G01X7201Y3753D01*
G01X7190Y3763D01*
G01X7180Y3773D01*
G01X7170Y3784D01*
G01X7161Y3795D01*
G01X7153Y3807D01*
G01X7145Y3820D01*
G01X7138Y3832D01*
G01X7132Y3845D01*
G01X7122Y3873D01*
G01X7116Y3901D01*
G01X7114Y3915D01*
G01X7112Y3930D01*
G01X7112Y3960D01*
G01X7116Y3992D01*
G01X7120Y4008D01*
G01X7130Y4038D01*
G01X7137Y4053D01*
G01X7139Y4058D01*
G01X7141Y4070D01*
G01X7141Y5219D01*
G01X7140Y5224D01*
G01X7139Y5230D01*
G01X7137Y5235D01*
G01X7131Y5245D01*
G01X7127Y5249D01*
G01X7117Y5255D01*
G01X7112Y5257D01*
G01X7106Y5258D01*
G01X7101Y5259D01*
G37*

%LPC*%
G36*
G01X4367Y968D02*
G01X4350Y969D01*
G01X4332Y968D01*
G01X4315Y967D01*
G01X4297Y965D01*
G01X4280Y962D01*
G01X4262Y958D01*
G01X4245Y954D01*
G01X4228Y948D01*
G01X4212Y942D01*
G01X4180Y928D01*
G01X4164Y919D01*
G01X4149Y910D01*
G01X4135Y900D01*
G01X4120Y890D01*
G01X4081Y854D01*
G01X4069Y841D01*
G01X4058Y827D01*
G01X4048Y813D01*
G01X4038Y798D01*
G01X4020Y768D01*
G01X4012Y752D01*
G01X4005Y736D01*
G01X3999Y719D01*
G01X3989Y685D01*
G01X3983Y651D01*
G01X3980Y633D01*
G01X3979Y616D01*
G01X3979Y580D01*
G01X3980Y563D01*
G01X3983Y545D01*
G01X3986Y528D01*
G01X3989Y510D01*
G01X3994Y493D01*
G01X3999Y477D01*
G01X4005Y460D01*
G01X4012Y444D01*
G01X4020Y428D01*
G01X4029Y412D01*
G01X4038Y397D01*
G01X4058Y369D01*
G01X4069Y355D01*
G01X4081Y342D01*
G01X4094Y329D01*
G01X4107Y318D01*
G01X4120Y306D01*
G01X4135Y296D01*
G01X4149Y286D01*
G01X4164Y277D01*
G01X4180Y268D01*
G01X4196Y260D01*
G01X4212Y253D01*
G01X4228Y247D01*
G01X4262Y237D01*
G01X4280Y234D01*
G01X4297Y231D01*
G01X4315Y229D01*
G01X4332Y227D01*
G01X4367Y227D01*
G01X4385Y229D01*
G01X4402Y231D01*
G01X4420Y234D01*
G01X4437Y237D01*
G01X4471Y247D01*
G01X4487Y253D01*
G01X4503Y260D01*
G01X4535Y276D01*
G01X4550Y285D01*
G01X4564Y295D01*
G01X4592Y317D01*
G01X4605Y329D01*
G01X4617Y341D01*
G01X4641Y367D01*
G01X4651Y381D01*
G01X4661Y396D01*
G01X4679Y426D01*
G01X4687Y442D01*
G01X4694Y458D01*
G01X4700Y475D01*
G01X4705Y491D01*
G01X4707Y497D01*
G01X4710Y502D01*
G01X4713Y506D01*
G01X4717Y510D01*
G01X4722Y514D01*
G01X4732Y518D01*
G01X4738Y520D01*
G01X4749Y520D01*
G01X4755Y518D01*
G01X4765Y514D01*
G01X4770Y510D01*
G01X4774Y506D01*
G01X4777Y502D01*
G01X4780Y497D01*
G01X4782Y491D01*
G01X4787Y475D01*
G01X4793Y458D01*
G01X4800Y442D01*
G01X4808Y426D01*
G01X4826Y396D01*
G01X4836Y381D01*
G01X4846Y367D01*
G01X4870Y341D01*
G01X4882Y329D01*
G01X4895Y317D01*
G01X4923Y295D01*
G01X4937Y285D01*
G01X4952Y276D01*
G01X4984Y260D01*
G01X5000Y253D01*
G01X5016Y247D01*
G01X5050Y237D01*
G01X5067Y234D01*
G01X5085Y231D01*
G01X5102Y229D01*
G01X5120Y227D01*
G01X5155Y227D01*
G01X5172Y229D01*
G01X5190Y231D01*
G01X5224Y237D01*
G01X5258Y247D01*
G01X5275Y253D01*
G01X5291Y260D01*
G01X5307Y268D01*
G01X5322Y276D01*
G01X5337Y285D01*
G01X5352Y295D01*
G01X5366Y306D01*
G01X5379Y317D01*
G01X5405Y341D01*
G01X5417Y354D01*
G01X5428Y367D01*
G01X5439Y381D01*
G01X5448Y396D01*
G01X5458Y411D01*
G01X5466Y426D01*
G01X5474Y442D01*
G01X5481Y458D01*
G01X5487Y475D01*
G01X5493Y491D01*
G01X5495Y497D01*
G01X5497Y502D01*
G01X5509Y514D01*
G01X5514Y516D01*
G01X5520Y518D01*
G01X5525Y520D01*
G01X5537Y520D01*
G01X5552Y514D01*
G01X5557Y510D01*
G01X5561Y506D01*
G01X5564Y502D01*
G01X5567Y497D01*
G01X5569Y491D01*
G01X5575Y475D01*
G01X5581Y458D01*
G01X5588Y442D01*
G01X5596Y426D01*
G01X5604Y411D01*
G01X5613Y396D01*
G01X5623Y381D01*
G01X5634Y367D01*
G01X5645Y354D01*
G01X5657Y341D01*
G01X5669Y329D01*
G01X5683Y317D01*
G01X5696Y306D01*
G01X5710Y295D01*
G01X5725Y285D01*
G01X5740Y276D01*
G01X5755Y268D01*
G01X5771Y260D01*
G01X5787Y253D01*
G01X5804Y247D01*
G01X5838Y237D01*
G01X5872Y231D01*
G01X5889Y229D01*
G01X5907Y227D01*
G01X5942Y227D01*
G01X5960Y229D01*
G01X5977Y231D01*
G01X5995Y234D01*
G01X6012Y237D01*
G01X6046Y247D01*
G01X6062Y253D01*
G01X6079Y260D01*
G01X6095Y268D01*
G01X6125Y286D01*
G01X6140Y296D01*
G01X6154Y306D01*
G01X6168Y318D01*
G01X6181Y329D01*
G01X6205Y355D01*
G01X6227Y383D01*
G01X6237Y397D01*
G01X6246Y412D01*
G01X6262Y444D01*
G01X6269Y460D01*
G01X6275Y477D01*
G01X6281Y493D01*
G01X6285Y510D01*
G01X6289Y528D01*
G01X6292Y545D01*
G01X6294Y563D01*
G01X6295Y580D01*
G01X6296Y598D01*
G01X6295Y616D01*
G01X6294Y633D01*
G01X6292Y651D01*
G01X6289Y668D01*
G01X6281Y702D01*
G01X6269Y736D01*
G01X6262Y752D01*
G01X6254Y768D01*
G01X6246Y783D01*
G01X6237Y798D01*
G01X6227Y813D01*
G01X6205Y841D01*
G01X6193Y854D01*
G01X6181Y866D01*
G01X6168Y878D01*
G01X6154Y890D01*
G01X6140Y900D01*
G01X6125Y910D01*
G01X6095Y928D01*
G01X6079Y935D01*
G01X6062Y942D01*
G01X6046Y948D01*
G01X6029Y954D01*
G01X5995Y962D01*
G01X5977Y965D01*
G01X5960Y967D01*
G01X5942Y968D01*
G01X5925Y969D01*
G01X5889Y967D01*
G01X5872Y965D01*
G01X5838Y959D01*
G01X5804Y949D01*
G01X5787Y943D01*
G01X5771Y936D01*
G01X5755Y928D01*
G01X5740Y920D01*
G01X5725Y911D01*
G01X5710Y901D01*
G01X5696Y890D01*
G01X5683Y879D01*
G01X5669Y867D01*
G01X5657Y855D01*
G01X5645Y842D01*
G01X5623Y814D01*
G01X5613Y800D01*
G01X5604Y785D01*
G01X5596Y769D01*
G01X5588Y754D01*
G01X5581Y738D01*
G01X5569Y704D01*
G01X5567Y699D01*
G01X5564Y694D01*
G01X5561Y690D01*
G01X5557Y686D01*
G01X5552Y682D01*
G01X5547Y679D01*
G01X5542Y677D01*
G01X5537Y676D01*
G01X5525Y676D01*
G01X5520Y677D01*
G01X5514Y679D01*
G01X5509Y682D01*
G01X5497Y694D01*
G01X5493Y704D01*
G01X5481Y738D01*
G01X5474Y754D01*
G01X5466Y769D01*
G01X5458Y785D01*
G01X5448Y800D01*
G01X5439Y814D01*
G01X5417Y842D01*
G01X5405Y855D01*
G01X5379Y879D01*
G01X5366Y890D01*
G01X5352Y901D01*
G01X5337Y911D01*
G01X5322Y920D01*
G01X5307Y928D01*
G01X5291Y936D01*
G01X5275Y943D01*
G01X5258Y949D01*
G01X5224Y959D01*
G01X5190Y965D01*
G01X5172Y967D01*
G01X5155Y968D01*
G01X5137Y969D01*
G01X5120Y968D01*
G01X5102Y967D01*
G01X5085Y965D01*
G01X5067Y962D01*
G01X5050Y959D01*
G01X5016Y949D01*
G01X5000Y943D01*
G01X4984Y936D01*
G01X4952Y920D01*
G01X4937Y911D01*
G01X4923Y901D01*
G01X4895Y879D01*
G01X4882Y867D01*
G01X4870Y855D01*
G01X4858Y842D01*
G01X4846Y828D01*
G01X4826Y800D01*
G01X4817Y785D01*
G01X4808Y769D01*
G01X4800Y754D01*
G01X4793Y738D01*
G01X4787Y721D01*
G01X4782Y704D01*
G01X4780Y699D01*
G01X4777Y694D01*
G01X4774Y690D01*
G01X4770Y686D01*
G01X4765Y682D01*
G01X4760Y679D01*
G01X4755Y677D01*
G01X4749Y676D01*
G01X4738Y676D01*
G01X4732Y677D01*
G01X4727Y679D01*
G01X4722Y682D01*
G01X4717Y686D01*
G01X4713Y690D01*
G01X4710Y694D01*
G01X4707Y699D01*
G01X4705Y704D01*
G01X4700Y721D01*
G01X4694Y738D01*
G01X4687Y754D01*
G01X4679Y769D01*
G01X4670Y785D01*
G01X4661Y800D01*
G01X4641Y828D01*
G01X4629Y842D01*
G01X4617Y855D01*
G01X4605Y867D01*
G01X4592Y879D01*
G01X4564Y901D01*
G01X4550Y911D01*
G01X4535Y920D01*
G01X4503Y936D01*
G01X4487Y943D01*
G01X4471Y949D01*
G01X4437Y959D01*
G01X4420Y962D01*
G01X4402Y965D01*
G01X4385Y967D01*
G01X4367Y968D01*
G37*

%LPD*%
G54D12*
G01X472Y5480D02*
G01X7165Y5480D01*
G01X7362Y5283D02*
G01X7362Y3944D01*
G01X275Y5283D02*
G01X275Y3787D01*
G01X472Y3590D02*
G01X629Y3590D01*
G75*
G01X7165Y5480D02*
G02X7362Y5284I0J-197D01*
G01*
G75*
G01X472Y5480D02*
G03X276Y5284I0J-197D01*
G01*
G75*
G01X276Y3787D02*
G03X472Y3591I196J0D01*
G01*
G36*
G01X3292Y868D02*
G01X3832Y868D01*
G01X3832Y328D01*
G01X3292Y328D01*
G01X3292Y868D01*
G37*
G54D18*
G01X4350Y598D03*
G01X5137Y598D03*
G01X5925Y598D03*
G54D14*
G01X5196Y2429D03*
G01X1476Y3708D03*
G01X2224Y2527D03*
G01X2185Y1937D03*
G01X3818Y2429D03*
G01X1043Y893D03*
G01X2263Y1228D03*
G01X2224Y637D03*
G01X6141Y3472D03*
G01X6811Y2192D03*
G01X7362Y3944D03*
G01X629Y3590D03*
M00*
M02*
