G04 Layer: BottomSilkLayer*
G04 EasyEDA v6.4.7, 2021-01-18T10:53:27+01:00*
G04 aa4ddc66a76449b48dffd980d3e90acf,8dc9eacff13444d6b60fd3cb587e6cd5,01*
G04 Gerber Generator version 0.2*
G04 Scale: 100 percent, Rotated: No, Reflected: No *
G04 Dimensions in inches *
G04 leading zeros omitted , absolute positions ,2 integer and 4 decimal *
%FSLAX24Y24*%
%MOIN*%
G90*
D02*

%ADD23C,0.027000*%
%ADD24C,0.007200*%
%ADD25C,0.004320*%

%LPD*%
G54D23*
G01X5840Y5281D02*
G01X5840Y3945D01*
G01X5840Y5281D02*
G01X5394Y5281D01*
G01X5203Y5217D01*
G01X5076Y5090D01*
G01X5012Y4963D01*
G01X4949Y4772D01*
G01X4949Y4454D01*
G01X5012Y4263D01*
G01X5076Y4136D01*
G01X5203Y4008D01*
G01X5394Y3945D01*
G01X5840Y3945D01*
G01X4529Y5281D02*
G01X4529Y3945D01*
G01X4529Y5281D02*
G01X3701Y5281D01*
G01X4529Y4645D02*
G01X4020Y4645D01*
G01X2900Y5281D02*
G01X3027Y5217D01*
G01X3154Y5090D01*
G01X3218Y4963D01*
G01X3281Y4772D01*
G01X3281Y4454D01*
G01X3218Y4263D01*
G01X3154Y4136D01*
G01X3027Y4008D01*
G01X2900Y3945D01*
G01X2645Y3945D01*
G01X2518Y4008D01*
G01X2391Y4136D01*
G01X2327Y4263D01*
G01X2263Y4454D01*
G01X2263Y4772D01*
G01X2327Y4963D01*
G01X2391Y5090D01*
G01X2518Y5217D01*
G01X2645Y5281D01*
G01X2900Y5281D01*
G54D24*
G01X5743Y3532D02*
G01X5907Y3532D01*
G01X5923Y3384D01*
G01X5907Y3401D01*
G01X5858Y3417D01*
G01X5809Y3417D01*
G01X5760Y3401D01*
G01X5727Y3368D01*
G01X5711Y3319D01*
G01X5711Y3286D01*
G01X5727Y3237D01*
G01X5760Y3204D01*
G01X5809Y3188D01*
G01X5858Y3188D01*
G01X5907Y3204D01*
G01X5923Y3221D01*
G01X5940Y3253D01*
G01X5603Y3532D02*
G01X5472Y3188D01*
G01X5341Y3532D02*
G01X5472Y3188D01*
G01X4850Y3532D02*
G01X4883Y3532D01*
G01X4915Y3515D01*
G01X4932Y3466D01*
G01X4932Y3188D01*
G01X4981Y3417D02*
G01X4866Y3417D01*
G01X4742Y3532D02*
G01X4742Y3188D01*
G01X4437Y3417D02*
G01X4437Y3188D01*
G01X4437Y3368D02*
G01X4470Y3401D01*
G01X4503Y3417D01*
G01X4552Y3417D01*
G01X4585Y3401D01*
G01X4617Y3368D01*
G01X4634Y3319D01*
G01X4634Y3286D01*
G01X4617Y3237D01*
G01X4585Y3204D01*
G01X4552Y3188D01*
G01X4503Y3188D01*
G01X4470Y3204D01*
G01X4437Y3237D01*
G01X4280Y3532D02*
G01X4280Y3253D01*
G01X4264Y3204D01*
G01X4231Y3188D01*
G01X4199Y3188D01*
G01X4329Y3417D02*
G01X4215Y3417D01*
G01X3839Y3532D02*
G01X3708Y3188D01*
G01X3577Y3532D02*
G01X3708Y3188D01*
G01X3469Y3532D02*
G01X3469Y3188D01*
G01X3469Y3532D02*
G01X3256Y3532D01*
G01X3469Y3368D02*
G01X3338Y3368D01*
G01X3469Y3188D02*
G01X3256Y3188D01*
G01X3148Y3532D02*
G01X3148Y3188D01*
G01X3148Y3532D02*
G01X3001Y3532D01*
G01X2952Y3515D01*
G01X2935Y3499D01*
G01X2919Y3466D01*
G01X2919Y3433D01*
G01X2935Y3401D01*
G01X2952Y3384D01*
G01X3001Y3368D01*
G01X3148Y3368D01*
G01X3033Y3368D02*
G01X2919Y3188D01*
G01X2582Y3483D02*
G01X2615Y3515D01*
G01X2664Y3532D01*
G01X2729Y3532D01*
G01X2778Y3515D01*
G01X2811Y3483D01*
G01X2811Y3450D01*
G01X2795Y3417D01*
G01X2778Y3401D01*
G01X2745Y3384D01*
G01X2647Y3352D01*
G01X2615Y3335D01*
G01X2598Y3319D01*
G01X2582Y3286D01*
G01X2582Y3237D01*
G01X2615Y3204D01*
G01X2664Y3188D01*
G01X2729Y3188D01*
G01X2778Y3204D01*
G01X2811Y3237D01*
G01X2474Y3532D02*
G01X2474Y3188D01*
G01X2268Y3532D02*
G01X2300Y3515D01*
G01X2333Y3483D01*
G01X2349Y3450D01*
G01X2366Y3401D01*
G01X2366Y3319D01*
G01X2349Y3270D01*
G01X2333Y3237D01*
G01X2300Y3204D01*
G01X2268Y3188D01*
G01X2202Y3188D01*
G01X2169Y3204D01*
G01X2137Y3237D01*
G01X2120Y3270D01*
G01X2104Y3319D01*
G01X2104Y3401D01*
G01X2120Y3450D01*
G01X2137Y3483D01*
G01X2169Y3515D01*
G01X2202Y3532D01*
G01X2268Y3532D01*
G01X1996Y3532D02*
G01X1996Y3188D01*
G01X1996Y3532D02*
G01X1767Y3188D01*
G01X1767Y3532D02*
G01X1767Y3188D01*
G54D25*
G01X3676Y1256D02*
G01X3686Y1278D01*
G01X3708Y1299D01*
G01X3730Y1310D01*
G01X3774Y1310D01*
G01X3796Y1299D01*
G01X3817Y1278D01*
G01X3828Y1256D01*
G01X3839Y1223D01*
G01X3839Y1169D01*
G01X3828Y1136D01*
G01X3817Y1114D01*
G01X3796Y1092D01*
G01X3774Y1081D01*
G01X3730Y1081D01*
G01X3708Y1092D01*
G01X3686Y1114D01*
G01X3676Y1136D01*
G01X3676Y1169D01*
G01X3730Y1169D02*
G01X3676Y1169D01*
G01X3604Y1310D02*
G01X3604Y1081D01*
G01X3604Y1310D02*
G01X3451Y1081D01*
G01X3451Y1310D02*
G01X3451Y1081D01*
G01X3379Y1310D02*
G01X3379Y1081D01*
G01X3379Y1310D02*
G01X3302Y1310D01*
G01X3270Y1299D01*
G01X3248Y1278D01*
G01X3237Y1256D01*
G01X3226Y1223D01*
G01X3226Y1169D01*
G01X3237Y1136D01*
G01X3248Y1114D01*
G01X3270Y1092D01*
G01X3302Y1081D01*
G01X3379Y1081D01*
G01X4592Y1278D02*
G01X4592Y1081D01*
G01X4690Y1179D02*
G01X4493Y1179D01*
G01X4291Y1310D02*
G01X4400Y1310D01*
G01X4411Y1212D01*
G01X4400Y1223D01*
G01X4367Y1234D01*
G01X4334Y1234D01*
G01X4301Y1223D01*
G01X4280Y1201D01*
G01X4269Y1169D01*
G01X4269Y1147D01*
G01X4280Y1114D01*
G01X4301Y1092D01*
G01X4334Y1081D01*
G01X4367Y1081D01*
G01X4400Y1092D01*
G01X4411Y1103D01*
G01X4421Y1125D01*
G01X4197Y1310D02*
G01X4109Y1081D01*
G01X4022Y1310D02*
G01X4109Y1081D01*
G01X5287Y1278D02*
G01X5308Y1299D01*
G01X5341Y1310D01*
G01X5385Y1310D01*
G01X5418Y1299D01*
G01X5439Y1278D01*
G01X5439Y1256D01*
G01X5428Y1234D01*
G01X5418Y1223D01*
G01X5396Y1212D01*
G01X5330Y1190D01*
G01X5308Y1179D01*
G01X5298Y1169D01*
G01X5287Y1147D01*
G01X5287Y1114D01*
G01X5308Y1092D01*
G01X5341Y1081D01*
G01X5385Y1081D01*
G01X5418Y1092D01*
G01X5439Y1114D01*
G01X5215Y1310D02*
G01X5215Y1081D01*
G01X5215Y1310D02*
G01X5138Y1310D01*
G01X5106Y1299D01*
G01X5084Y1278D01*
G01X5073Y1256D01*
G01X5062Y1223D01*
G01X5062Y1169D01*
G01X5073Y1136D01*
G01X5084Y1114D01*
G01X5106Y1092D01*
G01X5138Y1081D01*
G01X5215Y1081D01*
G01X4903Y1310D02*
G01X4990Y1081D01*
G01X4903Y1310D02*
G01X4815Y1081D01*
G01X4957Y1158D02*
G01X4848Y1158D01*
G01X6037Y1278D02*
G01X6059Y1299D01*
G01X6092Y1310D01*
G01X6135Y1310D01*
G01X6168Y1299D01*
G01X6190Y1278D01*
G01X6190Y1256D01*
G01X6179Y1234D01*
G01X6168Y1223D01*
G01X6146Y1212D01*
G01X6081Y1190D01*
G01X6059Y1179D01*
G01X6048Y1169D01*
G01X6037Y1147D01*
G01X6037Y1114D01*
G01X6059Y1092D01*
G01X6092Y1081D01*
G01X6135Y1081D01*
G01X6168Y1092D01*
G01X6190Y1114D01*
G01X5802Y1256D02*
G01X5813Y1278D01*
G01X5834Y1299D01*
G01X5856Y1310D01*
G01X5900Y1310D01*
G01X5922Y1299D01*
G01X5943Y1278D01*
G01X5954Y1256D01*
G01X5965Y1223D01*
G01X5965Y1169D01*
G01X5954Y1136D01*
G01X5943Y1114D01*
G01X5922Y1092D01*
G01X5900Y1081D01*
G01X5856Y1081D01*
G01X5834Y1092D01*
G01X5813Y1114D01*
G01X5802Y1136D01*
G01X5730Y1310D02*
G01X5730Y1081D01*
G01X5730Y1081D02*
G01X5599Y1081D01*
G54D24*
G01X5825Y3047D02*
G01X5858Y3014D01*
G01X5891Y2965D01*
G01X5923Y2900D01*
G01X5940Y2818D01*
G01X5940Y2753D01*
G01X5923Y2671D01*
G01X5891Y2605D01*
G01X5858Y2556D01*
G01X5825Y2523D01*
G01X5521Y2982D02*
G01X5684Y2982D01*
G01X5701Y2834D01*
G01X5684Y2851D01*
G01X5635Y2867D01*
G01X5586Y2867D01*
G01X5537Y2851D01*
G01X5504Y2818D01*
G01X5488Y2769D01*
G01X5488Y2736D01*
G01X5504Y2687D01*
G01X5537Y2654D01*
G01X5586Y2638D01*
G01X5635Y2638D01*
G01X5684Y2654D01*
G01X5701Y2671D01*
G01X5717Y2703D01*
G01X5364Y2720D02*
G01X5380Y2703D01*
G01X5364Y2687D01*
G01X5347Y2703D01*
G01X5364Y2720D01*
G01X5043Y2982D02*
G01X5207Y2982D01*
G01X5223Y2834D01*
G01X5207Y2851D01*
G01X5157Y2867D01*
G01X5108Y2867D01*
G01X5059Y2851D01*
G01X5027Y2818D01*
G01X5010Y2769D01*
G01X5010Y2736D01*
G01X5027Y2687D01*
G01X5059Y2654D01*
G01X5108Y2638D01*
G01X5157Y2638D01*
G01X5207Y2654D01*
G01X5223Y2671D01*
G01X5239Y2703D01*
G01X4902Y2982D02*
G01X4771Y2638D01*
G01X4640Y2982D02*
G01X4771Y2638D01*
G01X4280Y2982D02*
G01X4280Y2638D01*
G01X4280Y2982D02*
G01X4149Y2638D01*
G01X4019Y2982D02*
G01X4149Y2638D01*
G01X4019Y2982D02*
G01X4019Y2638D01*
G01X3780Y2982D02*
G01X3911Y2638D01*
G01X3780Y2982D02*
G01X3649Y2638D01*
G01X3861Y2753D02*
G01X3698Y2753D01*
G01X3541Y2982D02*
G01X3312Y2638D01*
G01X3312Y2982D02*
G01X3541Y2638D01*
G01X3187Y2982D02*
G01X3187Y2753D01*
G01X3187Y2671D02*
G01X3204Y2654D01*
G01X3187Y2638D01*
G01X3171Y2654D01*
G01X3187Y2671D01*
G01X3063Y3047D02*
G01X3030Y3014D01*
G01X2997Y2965D01*
G01X2965Y2900D01*
G01X2948Y2818D01*
G01X2948Y2753D01*
G01X2965Y2671D01*
G01X2997Y2605D01*
G01X3030Y2556D01*
G01X3063Y2523D01*
M00*
M02*
