G04 Layer: TopLayer*
G04 EasyEDA v6.4.7, 2021-01-18T10:53:27+01:00*
G04 aa4ddc66a76449b48dffd980d3e90acf,8dc9eacff13444d6b60fd3cb587e6cd5,01*
G04 Gerber Generator version 0.2*
G04 Scale: 100 percent, Rotated: No, Reflected: No *
G04 Dimensions in inches *
G04 leading zeros omitted , absolute positions ,2 integer and 4 decimal *
%FSLAX24Y24*%
%MOIN*%
G90*
D02*

%ADD10C,0.010000*%
%ADD11C,0.012000*%
%ADD12C,0.024000*%
%ADD13C,0.016000*%
%ADD14C,0.029750*%
%ADD15R,0.100000X0.050000*%
%ADD18C,0.054000*%

%LPD*%
G36*
G01X6969Y2759D02*
G01X6624Y2759D01*
G01X6618Y2758D01*
G01X6613Y2756D01*
G01X6603Y2750D01*
G01X6599Y2746D01*
G01X6593Y2736D01*
G01X6591Y2731D01*
G01X6589Y2719D01*
G01X6591Y2707D01*
G01X6594Y2696D01*
G01X6596Y2686D01*
G01X6596Y2675D01*
G01X6597Y2458D01*
G01X6595Y2440D01*
G01X6593Y2431D01*
G01X6590Y2422D01*
G01X6586Y2413D01*
G01X6576Y2397D01*
G01X6570Y2390D01*
G01X6564Y2384D01*
G01X6556Y2378D01*
G01X6549Y2372D01*
G01X6541Y2368D01*
G01X6532Y2364D01*
G01X6523Y2361D01*
G01X6514Y2359D01*
G01X6496Y2357D01*
G01X6372Y2357D01*
G01X6367Y2356D01*
G01X6361Y2354D01*
G01X6356Y2351D01*
G01X6344Y2339D01*
G01X6342Y2334D01*
G01X6340Y2328D01*
G01X6338Y2323D01*
G01X6338Y2050D01*
G01X6340Y2044D01*
G01X6344Y2034D01*
G01X6348Y2029D01*
G01X6352Y2025D01*
G01X6356Y2022D01*
G01X6361Y2019D01*
G01X6367Y2017D01*
G01X6372Y2016D01*
G01X6378Y2015D01*
G01X6909Y2015D01*
G01X6914Y2016D01*
G01X6920Y2017D01*
G01X6925Y2019D01*
G01X6935Y2025D01*
G01X6939Y2029D01*
G01X6945Y2039D01*
G01X6947Y2044D01*
G01X6948Y2050D01*
G01X6949Y2055D01*
G01X6948Y2063D01*
G01X6946Y2074D01*
G01X6946Y2310D01*
G01X6947Y2319D01*
G01X6949Y2328D01*
G01X6952Y2337D01*
G01X6956Y2345D01*
G01X6966Y2361D01*
G01X6978Y2375D01*
G01X6985Y2381D01*
G01X7001Y2391D01*
G01X7009Y2395D01*
G01X7018Y2398D01*
G01X7028Y2402D01*
G01X7033Y2406D01*
G01X7037Y2410D01*
G01X7040Y2414D01*
G01X7043Y2419D01*
G01X7045Y2425D01*
G01X7046Y2430D01*
G01X7047Y2436D01*
G01X7047Y2697D01*
G01X7046Y2703D01*
G01X7045Y2708D01*
G01X7043Y2714D01*
G01X7040Y2719D01*
G01X7037Y2723D01*
G01X7033Y2727D01*
G01X7028Y2731D01*
G01X7018Y2735D01*
G01X7010Y2738D01*
G01X7001Y2742D01*
G01X6994Y2746D01*
G01X6986Y2751D01*
G01X6981Y2755D01*
G01X6969Y2759D01*
G37*

%LPD*%
G36*
G01X2327Y3393D02*
G01X1805Y3393D01*
G01X1800Y3392D01*
G01X1794Y3390D01*
G01X1789Y3387D01*
G01X1777Y3375D01*
G01X1775Y3370D01*
G01X1773Y3364D01*
G01X1772Y3359D01*
G01X1771Y3353D01*
G01X1771Y2837D01*
G01X1772Y2832D01*
G01X1773Y2826D01*
G01X1777Y2816D01*
G01X1781Y2811D01*
G01X1785Y2807D01*
G01X1789Y2804D01*
G01X1794Y2801D01*
G01X1800Y2799D01*
G01X1805Y2798D01*
G01X1811Y2797D01*
G01X1950Y2797D01*
G01X1959Y2796D01*
G01X1968Y2794D01*
G01X1977Y2791D01*
G01X1985Y2787D01*
G01X1994Y2782D01*
G01X2001Y2777D01*
G01X2008Y2771D01*
G01X2015Y2764D01*
G01X2021Y2757D01*
G01X2026Y2750D01*
G01X2031Y2741D01*
G01X2035Y2733D01*
G01X2038Y2724D01*
G01X2040Y2715D01*
G01X2041Y2706D01*
G01X2041Y2470D01*
G01X2040Y2461D01*
G01X2038Y2452D01*
G01X2035Y2443D01*
G01X2031Y2435D01*
G01X2021Y2419D01*
G01X2015Y2412D01*
G01X2008Y2405D01*
G01X2001Y2399D01*
G01X1994Y2394D01*
G01X1985Y2389D01*
G01X1977Y2386D01*
G01X1968Y2383D01*
G01X1950Y2379D01*
G01X1654Y2379D01*
G01X1642Y2377D01*
G01X1637Y2375D01*
G01X1627Y2369D01*
G01X1623Y2365D01*
G01X1617Y2355D01*
G01X1615Y2350D01*
G01X1614Y2344D01*
G01X1614Y2084D01*
G01X1615Y2078D01*
G01X1617Y2073D01*
G01X1623Y2063D01*
G01X1627Y2059D01*
G01X1637Y2053D01*
G01X1642Y2051D01*
G01X1654Y2049D01*
G01X1950Y2049D01*
G01X1959Y2048D01*
G01X1977Y2042D01*
G01X1985Y2039D01*
G01X1994Y2034D01*
G01X2001Y2029D01*
G01X2008Y2023D01*
G01X2015Y2016D01*
G01X2021Y2009D01*
G01X2031Y1993D01*
G01X2035Y1985D01*
G01X2038Y1976D01*
G01X2040Y1967D01*
G01X2041Y1958D01*
G01X2041Y1740D01*
G01X2042Y1735D01*
G01X2043Y1729D01*
G01X2045Y1724D01*
G01X2051Y1714D01*
G01X2055Y1710D01*
G01X2065Y1704D01*
G01X2070Y1702D01*
G01X2076Y1701D01*
G01X2081Y1700D01*
G01X2755Y1700D01*
G01X2760Y1701D01*
G01X2766Y1702D01*
G01X2771Y1704D01*
G01X2781Y1710D01*
G01X2785Y1714D01*
G01X2791Y1724D01*
G01X2793Y1729D01*
G01X2794Y1735D01*
G01X2795Y1740D01*
G01X2795Y2339D01*
G01X2794Y2344D01*
G01X2793Y2350D01*
G01X2791Y2355D01*
G01X2785Y2365D01*
G01X2781Y2369D01*
G01X2771Y2375D01*
G01X2766Y2377D01*
G01X2760Y2378D01*
G01X2755Y2379D01*
G01X2482Y2379D01*
G01X2464Y2383D01*
G01X2455Y2386D01*
G01X2447Y2389D01*
G01X2438Y2394D01*
G01X2431Y2399D01*
G01X2424Y2405D01*
G01X2417Y2412D01*
G01X2411Y2419D01*
G01X2401Y2435D01*
G01X2397Y2443D01*
G01X2394Y2452D01*
G01X2392Y2461D01*
G01X2391Y2470D01*
G01X2391Y2685D01*
G01X2389Y2697D01*
G01X2387Y2702D01*
G01X2381Y2712D01*
G01X2377Y2716D01*
G01X2367Y2722D01*
G01X2362Y2724D01*
G01X2362Y3353D01*
G01X2361Y3359D01*
G01X2360Y3364D01*
G01X2358Y3370D01*
G01X2355Y3375D01*
G01X2352Y3379D01*
G01X2348Y3383D01*
G01X2343Y3387D01*
G01X2338Y3390D01*
G01X2333Y3392D01*
G01X2327Y3393D01*
G37*

%LPD*%
G36*
G01X2351Y1425D02*
G01X2081Y1425D01*
G01X2076Y1424D01*
G01X2070Y1423D01*
G01X2065Y1421D01*
G01X2055Y1415D01*
G01X2051Y1411D01*
G01X2045Y1401D01*
G01X2043Y1396D01*
G01X2042Y1390D01*
G01X2041Y1385D01*
G01X2041Y1169D01*
G01X2040Y1160D01*
G01X2038Y1151D01*
G01X2035Y1142D01*
G01X2031Y1134D01*
G01X2026Y1125D01*
G01X2021Y1118D01*
G01X2015Y1111D01*
G01X2008Y1104D01*
G01X2001Y1098D01*
G01X1994Y1093D01*
G01X1985Y1088D01*
G01X1977Y1084D01*
G01X1968Y1081D01*
G01X1959Y1079D01*
G01X1950Y1078D01*
G01X1693Y1078D01*
G01X1687Y1077D01*
G01X1682Y1076D01*
G01X1676Y1074D01*
G01X1671Y1071D01*
G01X1667Y1068D01*
G01X1663Y1064D01*
G01X1659Y1059D01*
G01X1655Y1049D01*
G01X1653Y1043D01*
G01X1653Y782D01*
G01X1655Y777D01*
G01X1657Y771D01*
G01X1659Y766D01*
G01X1671Y754D01*
G01X1676Y752D01*
G01X1682Y750D01*
G01X1687Y749D01*
G01X1693Y748D01*
G01X1950Y748D01*
G01X1968Y744D01*
G01X1977Y741D01*
G01X1985Y738D01*
G01X1994Y733D01*
G01X2001Y728D01*
G01X2008Y722D01*
G01X2015Y715D01*
G01X2021Y708D01*
G01X2031Y692D01*
G01X2035Y684D01*
G01X2038Y675D01*
G01X2040Y666D01*
G01X2041Y656D01*
G01X2041Y441D01*
G01X2042Y435D01*
G01X2043Y430D01*
G01X2045Y424D01*
G01X2048Y419D01*
G01X2051Y415D01*
G01X2055Y411D01*
G01X2060Y407D01*
G01X2070Y403D01*
G01X2076Y402D01*
G01X2081Y401D01*
G01X2794Y401D01*
G01X2800Y402D01*
G01X2805Y403D01*
G01X2811Y405D01*
G01X2816Y407D01*
G01X2828Y419D01*
G01X2830Y424D01*
G01X2832Y430D01*
G01X2834Y435D01*
G01X2834Y1043D01*
G01X2832Y1049D01*
G01X2828Y1059D01*
G01X2824Y1064D01*
G01X2820Y1068D01*
G01X2816Y1071D01*
G01X2811Y1074D01*
G01X2805Y1076D01*
G01X2800Y1077D01*
G01X2794Y1078D01*
G01X2482Y1078D01*
G01X2473Y1079D01*
G01X2464Y1081D01*
G01X2455Y1084D01*
G01X2447Y1088D01*
G01X2438Y1093D01*
G01X2431Y1098D01*
G01X2424Y1104D01*
G01X2417Y1111D01*
G01X2411Y1118D01*
G01X2406Y1125D01*
G01X2401Y1134D01*
G01X2397Y1142D01*
G01X2394Y1151D01*
G01X2392Y1160D01*
G01X2391Y1169D01*
G01X2391Y1385D01*
G01X2390Y1390D01*
G01X2389Y1396D01*
G01X2387Y1401D01*
G01X2381Y1411D01*
G01X2377Y1415D01*
G01X2367Y1421D01*
G01X2362Y1423D01*
G01X2356Y1424D01*
G01X2351Y1425D01*
G37*

%LPD*%
G54D11*
G01X4685Y3000D02*
G01X4685Y1073D01*
G54D10*
G01X4390Y3393D02*
G01X4390Y5168D01*
G01X3640Y3753D02*
G01X3640Y4618D01*
G01X433Y5381D02*
G01X1082Y5381D01*
G01X3700Y5381D01*
G01X5340Y3749D02*
G01X5340Y4618D01*
G01X3342Y3193D02*
G01X4190Y3193D01*
G01X4177Y5381D02*
G01X3700Y5381D01*
G54D11*
G01X3339Y2429D02*
G01X3818Y2429D01*
G01X5636Y2429D02*
G01X5196Y2429D01*
G54D10*
G01X1082Y4712D02*
G01X1082Y4594D01*
G01X1418Y4258D01*
G54D12*
G01X368Y2503D02*
G01X368Y1385D01*
G01X368Y441D01*
G01X669Y441D01*
G01X669Y401D01*
G01X1043Y401D01*
G01X1043Y893D01*
G54D11*
G01X4045Y1385D02*
G01X4045Y1162D01*
G01X3987Y1023D02*
G01X3562Y598D01*
G54D10*
G01X1476Y4119D02*
G01X1476Y3708D01*
G54D12*
G01X6584Y3472D02*
G01X6141Y3472D01*
G54D10*
G01X5636Y2685D02*
G01X6220Y2685D01*
G01X6259Y2566D01*
G54D11*
G01X4921Y1683D02*
G01X4921Y2744D01*
G01X5118Y2940D02*
G01X5636Y2940D01*
G01X5925Y598D02*
G01X4978Y1544D01*
G01X5636Y3196D02*
G01X4881Y3196D01*
G01X4742Y934D02*
G01X5078Y598D01*
G01X5137Y598D01*
G54D10*
G01X433Y4712D02*
G01X433Y4181D01*
G01X590Y4181D01*
G01X590Y4062D01*
G01X669Y4062D01*
G54D12*
G01X6641Y1594D02*
G01X6641Y933D01*
G01X7007Y933D01*
G54D13*
G01X2728Y2588D02*
G01X2736Y2588D01*
G01X2736Y3165D01*
G54D11*
G01X3339Y2940D02*
G01X3042Y2940D01*
G01X2902Y2998D02*
G01X2736Y3165D01*
G01X3339Y2173D02*
G01X3339Y1917D01*
G54D13*
G01X2728Y1287D02*
G01X3356Y1287D01*
G01X3356Y1385D01*
G01X3339Y1385D01*
G01X3339Y1917D01*
G54D10*
G01X1535Y539D02*
G01X1704Y539D01*
G01X1704Y401D01*
G01X1901Y204D02*
G01X4153Y204D01*
G01X4350Y401D02*
G01X4350Y598D01*
G54D13*
G01X1057Y1385D02*
G01X1076Y1287D01*
G01X1338Y1287D01*
G01X1704Y1287D01*
G01X1057Y2503D02*
G01X1062Y2588D01*
G01X1704Y2588D01*
G54D12*
G01X1062Y2588D02*
G01X1062Y1818D01*
G01X1062Y1307D01*
G01X1057Y1385D01*
G54D11*
G01X1704Y1840D02*
G01X1704Y1818D01*
G01X1062Y1818D01*
G54D10*
G01X1338Y736D02*
G01X1338Y1287D01*
G54D12*
G01X669Y3118D02*
G01X860Y3118D01*
G01X1057Y2921D02*
G01X1057Y2503D01*
G01X629Y3590D02*
G01X629Y3157D01*
G54D13*
G01X629Y3157D02*
G01X669Y3118D01*
G54D12*
G01X7362Y3944D02*
G01X7362Y3561D01*
G54D13*
G01X7362Y3561D02*
G01X7273Y3472D01*
G54D12*
G01X7273Y3472D02*
G01X7273Y2950D01*
G54D13*
G01X7273Y2950D02*
G01X7283Y2940D01*
G01X6259Y2940D01*
G54D10*
G01X7283Y2192D02*
G01X7311Y2192D01*
G01X7311Y1594D01*
G36*
G01X1940Y2696D02*
G01X1940Y2480D01*
G01X1468Y2480D01*
G01X1468Y2696D01*
G01X1940Y2696D01*
G37*
G36*
G01X1940Y2322D02*
G01X1940Y2106D01*
G01X1468Y2106D01*
G01X1468Y2322D01*
G01X1940Y2322D01*
G37*
G36*
G01X1940Y1948D02*
G01X1940Y1732D01*
G01X1468Y1732D01*
G01X1468Y1948D01*
G01X1940Y1948D01*
G37*
G36*
G01X2964Y1948D02*
G01X2964Y1732D01*
G01X2492Y1732D01*
G01X2492Y1948D01*
G01X2964Y1948D01*
G37*
G36*
G01X2964Y2696D02*
G01X2964Y2480D01*
G01X2492Y2480D01*
G01X2492Y2696D01*
G01X2964Y2696D01*
G37*
G36*
G01X2942Y2952D02*
G01X2529Y2952D01*
G01X2529Y3378D01*
G01X2942Y3378D01*
G01X2942Y2952D01*
G37*
G36*
G01X2253Y2952D02*
G01X1840Y2952D01*
G01X1840Y3378D01*
G01X2253Y3378D01*
G01X2253Y2952D01*
G37*
G36*
G01X1263Y2291D02*
G01X850Y2291D01*
G01X850Y2716D01*
G01X1263Y2716D01*
G01X1263Y2291D01*
G37*
G36*
G01X574Y2291D02*
G01X161Y2291D01*
G01X161Y2716D01*
G01X574Y2716D01*
G01X574Y2291D01*
G37*
G36*
G01X7507Y1378D02*
G01X7114Y1378D01*
G01X7114Y1811D01*
G01X7507Y1811D01*
G01X7507Y1378D01*
G37*
G36*
G01X6838Y1378D02*
G01X6444Y1378D01*
G01X6444Y1811D01*
G01X6838Y1811D01*
G01X6838Y1378D01*
G37*
G36*
G01X3534Y3512D02*
G01X3534Y3392D01*
G01X3144Y3392D01*
G01X3144Y3512D01*
G01X3534Y3512D01*
G37*
G36*
G01X3534Y3256D02*
G01X3534Y3136D01*
G01X3144Y3136D01*
G01X3144Y3256D01*
G01X3534Y3256D01*
G37*
G36*
G01X3534Y3000D02*
G01X3534Y2880D01*
G01X3144Y2880D01*
G01X3144Y3000D01*
G01X3534Y3000D01*
G37*
G36*
G01X3534Y2745D02*
G01X3534Y2625D01*
G01X3144Y2625D01*
G01X3144Y2745D01*
G01X3534Y2745D01*
G37*
G36*
G01X3534Y2489D02*
G01X3534Y2369D01*
G01X3144Y2369D01*
G01X3144Y2489D01*
G01X3534Y2489D01*
G37*
G36*
G01X3534Y2233D02*
G01X3534Y2113D01*
G01X3144Y2113D01*
G01X3144Y2233D01*
G01X3534Y2233D01*
G37*
G36*
G01X3534Y1977D02*
G01X3534Y1857D01*
G01X3144Y1857D01*
G01X3144Y1977D01*
G01X3534Y1977D01*
G37*
G36*
G01X5831Y1977D02*
G01X5831Y1857D01*
G01X5441Y1857D01*
G01X5441Y1977D01*
G01X5831Y1977D01*
G37*
G36*
G01X5831Y2233D02*
G01X5831Y2113D01*
G01X5441Y2113D01*
G01X5441Y2233D01*
G01X5831Y2233D01*
G37*
G36*
G01X5831Y2489D02*
G01X5831Y2369D01*
G01X5441Y2369D01*
G01X5441Y2489D01*
G01X5831Y2489D01*
G37*
G36*
G01X5831Y2745D02*
G01X5831Y2625D01*
G01X5441Y2625D01*
G01X5441Y2745D01*
G01X5831Y2745D01*
G37*
G36*
G01X5831Y3000D02*
G01X5831Y2880D01*
G01X5441Y2880D01*
G01X5441Y3000D01*
G01X5831Y3000D01*
G37*
G36*
G01X5831Y3256D02*
G01X5831Y3136D01*
G01X5441Y3136D01*
G01X5441Y3256D01*
G01X5831Y3256D01*
G37*
G36*
G01X5831Y3512D02*
G01X5831Y3392D01*
G01X5441Y3392D01*
G01X5441Y3512D01*
G01X5831Y3512D01*
G37*
G36*
G01X649Y5578D02*
G01X649Y5185D01*
G01X216Y5185D01*
G01X216Y5578D01*
G01X649Y5578D01*
G37*
G36*
G01X649Y4909D02*
G01X649Y4515D01*
G01X216Y4515D01*
G01X216Y4909D01*
G01X649Y4909D01*
G37*
G36*
G01X1299Y5578D02*
G01X1299Y5185D01*
G01X866Y5185D01*
G01X866Y5578D01*
G01X1299Y5578D01*
G37*
G36*
G01X1299Y4909D02*
G01X1299Y4515D01*
G01X866Y4515D01*
G01X866Y4909D01*
G01X1299Y4909D01*
G37*
G54D15*
G01X7007Y933D03*
G36*
G01X169Y4313D02*
G01X1169Y4313D01*
G01X1169Y3812D01*
G01X169Y3812D01*
G01X169Y4313D01*
G37*
G36*
G01X169Y651D02*
G01X1169Y651D01*
G01X1169Y151D01*
G01X169Y151D01*
G01X169Y651D01*
G37*
G01X669Y3118D03*
G36*
G01X1940Y1395D02*
G01X1940Y1179D01*
G01X1468Y1179D01*
G01X1468Y1395D01*
G01X1940Y1395D01*
G37*
G36*
G01X1940Y1021D02*
G01X1940Y805D01*
G01X1468Y805D01*
G01X1468Y1021D01*
G01X1940Y1021D01*
G37*
G36*
G01X1940Y647D02*
G01X1940Y431D01*
G01X1468Y431D01*
G01X1468Y647D01*
G01X1940Y647D01*
G37*
G36*
G01X2964Y647D02*
G01X2964Y431D01*
G01X2492Y431D01*
G01X2492Y647D01*
G01X2964Y647D01*
G37*
G36*
G01X2964Y1395D02*
G01X2964Y1179D01*
G01X2492Y1179D01*
G01X2492Y1395D01*
G01X2964Y1395D01*
G37*
G36*
G01X3149Y1598D02*
G01X3562Y1598D01*
G01X3562Y1173D01*
G01X3149Y1173D01*
G01X3149Y1598D01*
G37*
G36*
G01X3838Y1598D02*
G01X4251Y1598D01*
G01X4251Y1173D01*
G01X3838Y1173D01*
G01X3838Y1598D01*
G37*
G36*
G01X1263Y1173D02*
G01X850Y1173D01*
G01X850Y1598D01*
G01X1263Y1598D01*
G01X1263Y1173D01*
G37*
G36*
G01X574Y1173D02*
G01X161Y1173D01*
G01X161Y1598D01*
G01X574Y1598D01*
G01X574Y1173D01*
G37*
G36*
G01X6496Y3049D02*
G01X6496Y2832D01*
G01X6023Y2832D01*
G01X6023Y3049D01*
G01X6496Y3049D01*
G37*
G36*
G01X6496Y2675D02*
G01X6496Y2458D01*
G01X6023Y2458D01*
G01X6023Y2675D01*
G01X6496Y2675D01*
G37*
G36*
G01X6496Y2301D02*
G01X6496Y2084D01*
G01X6023Y2084D01*
G01X6023Y2301D01*
G01X6496Y2301D01*
G37*
G36*
G01X7519Y2301D02*
G01X7519Y2084D01*
G01X7047Y2084D01*
G01X7047Y2301D01*
G01X7519Y2301D01*
G37*
G36*
G01X7519Y3049D02*
G01X7519Y2832D01*
G01X7047Y2832D01*
G01X7047Y3049D01*
G01X7519Y3049D01*
G37*
G36*
G01X7480Y3259D02*
G01X7066Y3259D01*
G01X7066Y3685D01*
G01X7480Y3685D01*
G01X7480Y3259D01*
G37*
G36*
G01X6791Y3259D02*
G01X6377Y3259D01*
G01X6377Y3685D01*
G01X6791Y3685D01*
G01X6791Y3259D01*
G37*
G36*
G01X3290Y5018D02*
G01X3990Y5018D01*
G01X3990Y4218D01*
G01X3290Y4218D01*
G01X3290Y5018D01*
G37*
G36*
G01X4990Y5018D02*
G01X5690Y5018D01*
G01X5690Y4218D01*
G01X4990Y4218D01*
G01X4990Y5018D01*
G37*
G54D11*
G75*
G01X4045Y1162D02*
G02X3988Y1023I-197J0D01*
G01*
G54D10*
G75*
G01X1419Y4258D02*
G02X1476Y4119I-139J-139D01*
G01*
G54D11*
G75*
G01X4921Y2744D02*
G02X5118Y2941I197J0D01*
G01*
G75*
G01X4979Y1545D02*
G02X4921Y1684I139J139D01*
G01*
G75*
G01X4882Y3197D02*
G03X4685Y3000I0J-197D01*
G01*
G75*
G01X4685Y1074D02*
G03X4743Y935I197J0D01*
G01*
G75*
G01X3042Y2941D02*
G02X2903Y2999I0J197D01*
G01*
G54D10*
G75*
G01X1705Y402D02*
G03X1902Y205I196J-1D01*
G01*
G75*
G01X4154Y205D02*
G03X4350Y402I0J196D01*
G01*
G75*
G01X1535Y539D02*
G02X1339Y736I0J197D01*
G01*
G54D12*
G75*
G01X860Y3118D02*
G02X1057Y2921I0J-197D01*
G01*
G54D10*
G75*
G01X3339Y3197D02*
G03X3342Y3194I3J0D01*
G01*
G75*
G01X4190Y3194D02*
G03X4390Y3394I0J200D01*
G01*
G75*
G01X4390Y5169D02*
G03X4177Y5382I-213J0D01*
G01*
G75*
G01X3339Y3453D02*
G03X3640Y3753I0J300D01*
G01*
G75*
G01X5637Y3453D02*
G02X5340Y3750I0J297D01*
G01*
G36*
G01X3292Y868D02*
G01X3832Y868D01*
G01X3832Y328D01*
G01X3292Y328D01*
G01X3292Y868D01*
G37*
G54D18*
G01X4350Y598D03*
G01X5137Y598D03*
G01X5925Y598D03*
G54D14*
G01X5196Y2429D03*
G01X1476Y3708D03*
G01X2224Y2527D03*
G01X2185Y1937D03*
G01X3818Y2429D03*
G01X1043Y893D03*
G01X2263Y1228D03*
G01X2224Y637D03*
G01X6141Y3472D03*
G01X6811Y2192D03*
G01X7362Y3944D03*
G01X629Y3590D03*
M00*
M02*
