G04 Layer: TopSilkLayer*
G04 EasyEDA v6.4.7, 2021-01-18T10:53:27+01:00*
G04 ca9b9a0dce2c468c998d6246f507db70,8dc9eacff13444d6b60fd3cb587e6cd5,01*
G04 Gerber Generator version 0.2*
G04 Scale: 100 percent, Rotated: No, Reflected: No *
G04 Dimensions in inches *
G04 leading zeros omitted , absolute positions ,2 integer and 4 decimal *
%FSLAX24Y24*%
%MOIN*%
G90*
D02*

%ADD10C,0.010000*%
%ADD19C,0.006000*%
%ADD20C,0.008000*%
%ADD21C,0.002000*%
%ADD22C,0.007000*%

%LPD*%
G54D19*
G01X2220Y1053D02*
G01X2220Y1016D01*
G01X1582Y1016D01*
G01X1582Y1053D01*
G01X1582Y2099D02*
G01X1582Y2136D01*
G01X2220Y2136D01*
G01X2220Y2099D01*
G01X2220Y1782D02*
G01X2220Y1371D01*
G01X1582Y1745D02*
G01X1582Y1782D01*
G01X1582Y1371D02*
G01X1582Y1408D01*
G54D20*
G01X7519Y1161D02*
G01X7519Y177D01*
G01X4173Y177D01*
G01X4173Y1161D01*
G01X7519Y1161D01*
G54D19*
G01X5308Y3273D02*
G01X3510Y3273D01*
G01X3510Y1293D01*
G01X5308Y1293D01*
G01X5308Y3273D01*
G54D21*
G01X5218Y3183D02*
G01X3600Y3183D01*
G01X3600Y1383D01*
G01X5218Y1383D01*
G01X5218Y3183D01*
G54D10*
G01X5391Y4737D02*
G01X5391Y4897D01*
G01X3431Y4897D01*
G01X3431Y4737D01*
G01X3431Y3797D02*
G01X3431Y3637D01*
G01X5391Y3637D01*
G01X5391Y3797D01*
G01X4311Y4667D02*
G01X4311Y3867D01*
G01X4511Y3867D01*
G01X4511Y4667D01*
G01X4311Y4667D01*
G01X4161Y4767D02*
G01X4161Y4267D01*
G01X4161Y3767D01*
G01X4661Y4767D02*
G01X4661Y4267D01*
G01X4661Y3767D01*
G01X4161Y4267D02*
G01X3961Y4267D01*
G01X4661Y4267D02*
G01X4861Y4267D01*
G54D22*
G01X1288Y2670D02*
G01X1438Y2670D01*
G01X1356Y2561D01*
G01X1397Y2561D01*
G01X1425Y2547D01*
G01X1438Y2533D01*
G01X1452Y2492D01*
G01X1452Y2465D01*
G01X1438Y2424D01*
G01X1411Y2397D01*
G01X1370Y2383D01*
G01X1329Y2383D01*
G01X1288Y2397D01*
G01X1275Y2411D01*
G01X1261Y2438D01*
G01X1556Y2452D02*
G01X1542Y2438D01*
G01X1556Y2424D01*
G01X1569Y2438D01*
G01X1556Y2452D01*
G01X1686Y2670D02*
G01X1836Y2670D01*
G01X1755Y2561D01*
G01X1796Y2561D01*
G01X1823Y2547D01*
G01X1836Y2533D01*
G01X1850Y2492D01*
G01X1850Y2465D01*
G01X1836Y2424D01*
G01X1809Y2397D01*
G01X1768Y2383D01*
G01X1727Y2383D01*
G01X1686Y2397D01*
G01X1673Y2411D01*
G01X1659Y2438D01*
G01X1940Y2670D02*
G01X2049Y2383D01*
G01X2158Y2670D02*
G01X2049Y2383D01*
G01X6766Y2552D02*
G01X6752Y2579D01*
G01X6725Y2606D01*
G01X6697Y2620D01*
G01X6643Y2620D01*
G01X6616Y2606D01*
G01X6588Y2579D01*
G01X6575Y2552D01*
G01X6561Y2511D01*
G01X6561Y2442D01*
G01X6575Y2402D01*
G01X6588Y2374D01*
G01X6616Y2347D01*
G01X6643Y2333D01*
G01X6697Y2333D01*
G01X6725Y2347D01*
G01X6752Y2374D01*
G01X6766Y2402D01*
G01X6856Y2620D02*
G01X6856Y2333D01*
G01X6856Y2333D02*
G01X7019Y2333D01*
G01X7109Y2620D02*
G01X7109Y2333D01*
G01X7300Y2620D02*
G01X7109Y2429D01*
G01X7177Y2497D02*
G01X7300Y2333D01*
G01X1466Y502D02*
G01X1452Y529D01*
G01X1425Y556D01*
G01X1397Y570D01*
G01X1343Y570D01*
G01X1316Y556D01*
G01X1288Y529D01*
G01X1275Y502D01*
G01X1261Y461D01*
G01X1261Y392D01*
G01X1275Y352D01*
G01X1288Y324D01*
G01X1316Y297D01*
G01X1343Y283D01*
G01X1397Y283D01*
G01X1425Y297D01*
G01X1452Y324D01*
G01X1466Y352D01*
G01X1466Y392D01*
G01X1397Y392D02*
G01X1466Y392D01*
G01X1556Y570D02*
G01X1556Y283D01*
G01X1556Y570D02*
G01X1746Y283D01*
G01X1746Y570D02*
G01X1746Y283D01*
G01X1836Y570D02*
G01X1836Y283D01*
G01X1836Y570D02*
G01X1932Y570D01*
G01X1973Y556D01*
G01X2000Y529D01*
G01X2014Y502D01*
G01X2027Y461D01*
G01X2027Y392D01*
G01X2014Y352D01*
G01X2000Y324D01*
G01X1973Y297D01*
G01X1932Y283D01*
G01X1836Y283D01*
G01X1452Y3479D02*
G01X1425Y3506D01*
G01X1384Y3520D01*
G01X1329Y3520D01*
G01X1288Y3506D01*
G01X1261Y3479D01*
G01X1261Y3452D01*
G01X1275Y3424D01*
G01X1288Y3411D01*
G01X1316Y3397D01*
G01X1397Y3370D01*
G01X1425Y3356D01*
G01X1438Y3342D01*
G01X1452Y3315D01*
G01X1452Y3274D01*
G01X1425Y3247D01*
G01X1384Y3233D01*
G01X1329Y3233D01*
G01X1288Y3247D01*
G01X1261Y3274D01*
G01X1624Y3520D02*
G01X1583Y3506D01*
G01X1556Y3465D01*
G01X1542Y3397D01*
G01X1542Y3356D01*
G01X1556Y3288D01*
G01X1583Y3247D01*
G01X1624Y3233D01*
G01X1651Y3233D01*
G01X1692Y3247D01*
G01X1719Y3288D01*
G01X1733Y3356D01*
G01X1733Y3397D01*
G01X1719Y3465D01*
G01X1692Y3506D01*
G01X1651Y3520D01*
G01X1624Y3520D01*
G01X6643Y2120D02*
G01X6616Y2106D01*
G01X6588Y2079D01*
G01X6575Y2052D01*
G01X6561Y2011D01*
G01X6561Y1942D01*
G01X6575Y1902D01*
G01X6588Y1874D01*
G01X6616Y1847D01*
G01X6643Y1833D01*
G01X6697Y1833D01*
G01X6725Y1847D01*
G01X6752Y1874D01*
G01X6766Y1902D01*
G01X6779Y1942D01*
G01X6779Y2011D01*
G01X6766Y2052D01*
G01X6752Y2079D01*
G01X6725Y2106D01*
G01X6697Y2120D01*
G01X6643Y2120D01*
G01X6869Y2120D02*
G01X6869Y1915D01*
G01X6883Y1874D01*
G01X6910Y1847D01*
G01X6951Y1833D01*
G01X6978Y1833D01*
G01X7019Y1847D01*
G01X7046Y1874D01*
G01X7060Y1915D01*
G01X7060Y2120D01*
G01X7246Y2120D02*
G01X7246Y1833D01*
G01X7150Y2120D02*
G01X7341Y2120D01*
G54D19*
G75*
G01X3929Y2743D02*
G03X3928Y2743I-1J180D01*
G01*
M00*
M02*
