G04 Layer: BottomSilkLayer*
G04 EasyEDA v6.4.7, 2021-01-18T10:53:27+01:00*
G04 ca9b9a0dce2c468c998d6246f507db70,8dc9eacff13444d6b60fd3cb587e6cd5,01*
G04 Gerber Generator version 0.2*
G04 Scale: 100 percent, Rotated: No, Reflected: No *
G04 Dimensions in inches *
G04 leading zeros omitted , absolute positions ,2 integer and 4 decimal *
%FSLAX24Y24*%
%MOIN*%
G90*
D02*

%ADD23C,0.004320*%
%ADD24C,0.027000*%
%ADD25C,0.007200*%

%LPD*%
G54D23*
G01X5739Y1359D02*
G01X5619Y1359D01*
G01X5685Y1272D01*
G01X5652Y1272D01*
G01X5630Y1261D01*
G01X5619Y1250D01*
G01X5608Y1218D01*
G01X5608Y1196D01*
G01X5619Y1163D01*
G01X5641Y1141D01*
G01X5674Y1130D01*
G01X5706Y1130D01*
G01X5739Y1141D01*
G01X5750Y1152D01*
G01X5761Y1174D01*
G01X5525Y1185D02*
G01X5536Y1174D01*
G01X5525Y1163D01*
G01X5514Y1174D01*
G01X5525Y1185D01*
G01X5421Y1359D02*
G01X5301Y1359D01*
G01X5366Y1272D01*
G01X5333Y1272D01*
G01X5312Y1261D01*
G01X5301Y1250D01*
G01X5290Y1218D01*
G01X5290Y1196D01*
G01X5301Y1163D01*
G01X5322Y1141D01*
G01X5355Y1130D01*
G01X5388Y1130D01*
G01X5421Y1141D01*
G01X5432Y1152D01*
G01X5442Y1174D01*
G01X5218Y1359D02*
G01X5130Y1130D01*
G01X5043Y1359D02*
G01X5130Y1130D01*
G01X6408Y1327D02*
G01X6430Y1349D01*
G01X6462Y1359D01*
G01X6506Y1359D01*
G01X6539Y1349D01*
G01X6561Y1327D01*
G01X6561Y1305D01*
G01X6550Y1283D01*
G01X6539Y1272D01*
G01X6517Y1261D01*
G01X6452Y1239D01*
G01X6430Y1229D01*
G01X6419Y1218D01*
G01X6408Y1196D01*
G01X6408Y1163D01*
G01X6430Y1141D01*
G01X6462Y1130D01*
G01X6506Y1130D01*
G01X6539Y1141D01*
G01X6561Y1163D01*
G01X6336Y1359D02*
G01X6336Y1130D01*
G01X6336Y1359D02*
G01X6260Y1359D01*
G01X6227Y1349D01*
G01X6205Y1327D01*
G01X6194Y1305D01*
G01X6183Y1272D01*
G01X6183Y1218D01*
G01X6194Y1185D01*
G01X6205Y1163D01*
G01X6227Y1141D01*
G01X6260Y1130D01*
G01X6336Y1130D01*
G01X6024Y1359D02*
G01X6111Y1130D01*
G01X6024Y1359D02*
G01X5937Y1130D01*
G01X6078Y1207D02*
G01X5969Y1207D01*
G01X7208Y1327D02*
G01X7230Y1349D01*
G01X7263Y1359D01*
G01X7307Y1359D01*
G01X7339Y1349D01*
G01X7361Y1327D01*
G01X7361Y1305D01*
G01X7350Y1283D01*
G01X7339Y1272D01*
G01X7318Y1261D01*
G01X7252Y1239D01*
G01X7230Y1229D01*
G01X7219Y1218D01*
G01X7208Y1196D01*
G01X7208Y1163D01*
G01X7230Y1141D01*
G01X7263Y1130D01*
G01X7307Y1130D01*
G01X7339Y1141D01*
G01X7361Y1163D01*
G01X6973Y1305D02*
G01X6984Y1327D01*
G01X7006Y1349D01*
G01X7027Y1359D01*
G01X7071Y1359D01*
G01X7093Y1349D01*
G01X7115Y1327D01*
G01X7126Y1305D01*
G01X7136Y1272D01*
G01X7136Y1218D01*
G01X7126Y1185D01*
G01X7115Y1163D01*
G01X7093Y1141D01*
G01X7071Y1130D01*
G01X7027Y1130D01*
G01X7006Y1141D01*
G01X6984Y1163D01*
G01X6973Y1185D01*
G01X6901Y1359D02*
G01X6901Y1130D01*
G01X6901Y1130D02*
G01X6770Y1130D01*
G54D24*
G01X7161Y5030D02*
G01X7161Y3693D01*
G01X7161Y5030D02*
G01X6715Y5030D01*
G01X6525Y4966D01*
G01X6397Y4839D01*
G01X6334Y4711D01*
G01X6270Y4520D01*
G01X6270Y4202D01*
G01X6334Y4011D01*
G01X6397Y3884D01*
G01X6525Y3757D01*
G01X6715Y3693D01*
G01X7161Y3693D01*
G01X5850Y5030D02*
G01X5850Y3693D01*
G01X5850Y5030D02*
G01X5023Y5030D01*
G01X5850Y4393D02*
G01X5341Y4393D01*
G01X4221Y5030D02*
G01X4348Y4966D01*
G01X4475Y4839D01*
G01X4539Y4711D01*
G01X4603Y4520D01*
G01X4603Y4202D01*
G01X4539Y4011D01*
G01X4475Y3884D01*
G01X4348Y3757D01*
G01X4221Y3693D01*
G01X3966Y3693D01*
G01X3839Y3757D01*
G01X3712Y3884D01*
G01X3648Y4011D01*
G01X3585Y4202D01*
G01X3585Y4520D01*
G01X3648Y4711D01*
G01X3712Y4839D01*
G01X3839Y4966D01*
G01X3966Y5030D01*
G01X4221Y5030D01*
G54D23*
G01X4698Y1305D02*
G01X4708Y1327D01*
G01X4730Y1349D01*
G01X4752Y1359D01*
G01X4796Y1359D01*
G01X4818Y1349D01*
G01X4839Y1327D01*
G01X4850Y1305D01*
G01X4861Y1272D01*
G01X4861Y1218D01*
G01X4850Y1185D01*
G01X4839Y1163D01*
G01X4818Y1141D01*
G01X4796Y1130D01*
G01X4752Y1130D01*
G01X4730Y1141D01*
G01X4708Y1163D01*
G01X4698Y1185D01*
G01X4698Y1218D01*
G01X4752Y1218D02*
G01X4698Y1218D01*
G01X4626Y1359D02*
G01X4626Y1130D01*
G01X4626Y1359D02*
G01X4473Y1130D01*
G01X4473Y1359D02*
G01X4473Y1130D01*
G01X4401Y1359D02*
G01X4401Y1130D01*
G01X4401Y1359D02*
G01X4324Y1359D01*
G01X4292Y1349D01*
G01X4270Y1327D01*
G01X4259Y1305D01*
G01X4248Y1272D01*
G01X4248Y1218D01*
G01X4259Y1185D01*
G01X4270Y1163D01*
G01X4292Y1141D01*
G01X4324Y1130D01*
G01X4401Y1130D01*
G54D25*
G01X7228Y3280D02*
G01X7048Y3280D01*
G01X7146Y3149D01*
G01X7097Y3149D01*
G01X7065Y3133D01*
G01X7048Y3116D01*
G01X7032Y3067D01*
G01X7032Y3035D01*
G01X7048Y2986D01*
G01X7081Y2953D01*
G01X7130Y2936D01*
G01X7179Y2936D01*
G01X7228Y2953D01*
G01X7245Y2969D01*
G01X7261Y3002D01*
G01X6907Y3018D02*
G01X6924Y3002D01*
G01X6907Y2986D01*
G01X6891Y3002D01*
G01X6907Y3018D01*
G01X6750Y3280D02*
G01X6570Y3280D01*
G01X6669Y3149D01*
G01X6619Y3149D01*
G01X6587Y3133D01*
G01X6570Y3116D01*
G01X6554Y3067D01*
G01X6554Y3035D01*
G01X6570Y2986D01*
G01X6603Y2953D01*
G01X6652Y2936D01*
G01X6701Y2936D01*
G01X6750Y2953D01*
G01X6767Y2969D01*
G01X6783Y3002D01*
G01X6446Y3280D02*
G01X6315Y2936D01*
G01X6184Y3280D02*
G01X6315Y2936D01*
G01X5693Y3280D02*
G01X5726Y3280D01*
G01X5759Y3264D01*
G01X5775Y3215D01*
G01X5775Y2936D01*
G01X5824Y3166D02*
G01X5710Y3166D01*
G01X5585Y3280D02*
G01X5585Y2936D01*
G01X5281Y3166D02*
G01X5281Y2936D01*
G01X5281Y3116D02*
G01X5314Y3149D01*
G01X5346Y3166D01*
G01X5395Y3166D01*
G01X5428Y3149D01*
G01X5461Y3116D01*
G01X5477Y3067D01*
G01X5477Y3035D01*
G01X5461Y2986D01*
G01X5428Y2953D01*
G01X5395Y2936D01*
G01X5346Y2936D01*
G01X5314Y2953D01*
G01X5281Y2986D01*
G01X5124Y3280D02*
G01X5124Y3002D01*
G01X5107Y2953D01*
G01X5075Y2936D01*
G01X5042Y2936D01*
G01X5173Y3166D02*
G01X5058Y3166D01*
G01X4682Y3280D02*
G01X4551Y2936D01*
G01X4420Y3280D02*
G01X4551Y2936D01*
G01X4312Y3280D02*
G01X4312Y2936D01*
G01X4312Y3280D02*
G01X4099Y3280D01*
G01X4312Y3116D02*
G01X4181Y3116D01*
G01X4312Y2936D02*
G01X4099Y2936D01*
G01X3991Y3280D02*
G01X3991Y2936D01*
G01X3991Y3280D02*
G01X3844Y3280D01*
G01X3795Y3264D01*
G01X3779Y3247D01*
G01X3762Y3215D01*
G01X3762Y3182D01*
G01X3779Y3149D01*
G01X3795Y3133D01*
G01X3844Y3116D01*
G01X3991Y3116D01*
G01X3877Y3116D02*
G01X3762Y2936D01*
G01X3425Y3231D02*
G01X3458Y3264D01*
G01X3507Y3280D01*
G01X3573Y3280D01*
G01X3622Y3264D01*
G01X3654Y3231D01*
G01X3654Y3198D01*
G01X3638Y3166D01*
G01X3622Y3149D01*
G01X3589Y3133D01*
G01X3491Y3100D01*
G01X3458Y3084D01*
G01X3442Y3067D01*
G01X3425Y3035D01*
G01X3425Y2986D01*
G01X3458Y2953D01*
G01X3507Y2936D01*
G01X3573Y2936D01*
G01X3622Y2953D01*
G01X3654Y2986D01*
G01X3317Y3280D02*
G01X3317Y2936D01*
G01X3111Y3280D02*
G01X3144Y3264D01*
G01X3177Y3231D01*
G01X3193Y3198D01*
G01X3209Y3149D01*
G01X3209Y3067D01*
G01X3193Y3018D01*
G01X3177Y2986D01*
G01X3144Y2953D01*
G01X3111Y2936D01*
G01X3046Y2936D01*
G01X3013Y2953D01*
G01X2980Y2986D01*
G01X2964Y3018D01*
G01X2947Y3067D01*
G01X2947Y3149D01*
G01X2964Y3198D01*
G01X2980Y3231D01*
G01X3013Y3264D01*
G01X3046Y3280D01*
G01X3111Y3280D01*
G01X2839Y3280D02*
G01X2839Y2936D01*
G01X2839Y3280D02*
G01X2610Y2936D01*
G01X2610Y3280D02*
G01X2610Y2936D01*
G01X7146Y2646D02*
G01X7179Y2613D01*
G01X7212Y2564D01*
G01X7245Y2498D01*
G01X7261Y2416D01*
G01X7261Y2351D01*
G01X7245Y2269D01*
G01X7212Y2204D01*
G01X7179Y2155D01*
G01X7146Y2122D01*
G01X7006Y2580D02*
G01X6826Y2580D01*
G01X6924Y2449D01*
G01X6875Y2449D01*
G01X6842Y2433D01*
G01X6826Y2416D01*
G01X6809Y2367D01*
G01X6809Y2335D01*
G01X6826Y2286D01*
G01X6858Y2253D01*
G01X6907Y2236D01*
G01X6957Y2236D01*
G01X7006Y2253D01*
G01X7022Y2269D01*
G01X7038Y2302D01*
G01X6685Y2318D02*
G01X6701Y2302D01*
G01X6685Y2286D01*
G01X6669Y2302D01*
G01X6685Y2318D01*
G01X6364Y2531D02*
G01X6381Y2564D01*
G01X6430Y2580D01*
G01X6462Y2580D01*
G01X6511Y2564D01*
G01X6544Y2515D01*
G01X6561Y2433D01*
G01X6561Y2351D01*
G01X6544Y2286D01*
G01X6511Y2253D01*
G01X6462Y2236D01*
G01X6446Y2236D01*
G01X6397Y2253D01*
G01X6364Y2286D01*
G01X6348Y2335D01*
G01X6348Y2351D01*
G01X6364Y2400D01*
G01X6397Y2433D01*
G01X6446Y2449D01*
G01X6462Y2449D01*
G01X6511Y2433D01*
G01X6544Y2400D01*
G01X6561Y2351D01*
G01X6240Y2580D02*
G01X6109Y2236D01*
G01X5978Y2580D02*
G01X6109Y2236D01*
G01X5618Y2580D02*
G01X5618Y2236D01*
G01X5618Y2580D02*
G01X5487Y2236D01*
G01X5356Y2580D02*
G01X5487Y2236D01*
G01X5356Y2580D02*
G01X5356Y2236D01*
G01X5117Y2580D02*
G01X5248Y2236D01*
G01X5117Y2580D02*
G01X4986Y2236D01*
G01X5199Y2351D02*
G01X5035Y2351D01*
G01X4878Y2580D02*
G01X4649Y2236D01*
G01X4649Y2580D02*
G01X4878Y2236D01*
G01X4525Y2580D02*
G01X4525Y2351D01*
G01X4525Y2269D02*
G01X4541Y2253D01*
G01X4525Y2236D01*
G01X4509Y2253D01*
G01X4525Y2269D01*
G01X4401Y2646D02*
G01X4368Y2613D01*
G01X4335Y2564D01*
G01X4302Y2498D01*
G01X4286Y2416D01*
G01X4286Y2351D01*
G01X4302Y2269D01*
G01X4335Y2204D01*
G01X4368Y2155D01*
G01X4401Y2122D01*
M00*
M02*
