G04 Layer: BottomLayer*
G04 EasyEDA v6.4.7, 2021-01-18T10:53:27+01:00*
G04 ca9b9a0dce2c468c998d6246f507db70,8dc9eacff13444d6b60fd3cb587e6cd5,01*
G04 Gerber Generator version 0.2*
G04 Scale: 100 percent, Rotated: No, Reflected: No *
G04 Dimensions in inches *
G04 leading zeros omitted , absolute positions ,2 integer and 4 decimal *
%FSLAX24Y24*%
%MOIN*%
G90*
D02*

%ADD14C,0.029750*%
%ADD18C,0.054000*%

%LPD*%
G36*
G01X7497Y5293D02*
G01X100Y5293D01*
G01X95Y5292D01*
G01X89Y5291D01*
G01X84Y5289D01*
G01X74Y5283D01*
G01X70Y5279D01*
G01X64Y5269D01*
G01X62Y5264D01*
G01X61Y5258D01*
G01X60Y5253D01*
G01X60Y100D01*
G01X61Y95D01*
G01X62Y89D01*
G01X64Y84D01*
G01X70Y74D01*
G01X74Y70D01*
G01X84Y64D01*
G01X89Y62D01*
G01X95Y61D01*
G01X100Y60D01*
G01X7497Y60D01*
G01X7503Y61D01*
G01X7508Y62D01*
G01X7514Y64D01*
G01X7519Y67D01*
G01X7523Y70D01*
G01X7527Y74D01*
G01X7531Y79D01*
G01X7535Y89D01*
G01X7537Y95D01*
G01X7537Y5258D01*
G01X7535Y5264D01*
G01X7531Y5274D01*
G01X7527Y5279D01*
G01X7523Y5283D01*
G01X7519Y5286D01*
G01X7514Y5289D01*
G01X7508Y5291D01*
G01X7503Y5292D01*
G01X7497Y5293D01*
G37*

%LPC*%
G36*
G01X5470Y1039D02*
G01X5452Y1040D01*
G01X5434Y1039D01*
G01X5417Y1038D01*
G01X5400Y1036D01*
G01X5382Y1033D01*
G01X5348Y1025D01*
G01X5314Y1013D01*
G01X5282Y999D01*
G01X5252Y981D01*
G01X5237Y971D01*
G01X5209Y949D01*
G01X5196Y937D01*
G01X5184Y925D01*
G01X5172Y912D01*
G01X5150Y884D01*
G01X5140Y869D01*
G01X5131Y854D01*
G01X5123Y839D01*
G01X5115Y823D01*
G01X5108Y807D01*
G01X5096Y773D01*
G01X5088Y739D01*
G01X5085Y722D01*
G01X5083Y704D01*
G01X5082Y686D01*
G01X5081Y669D01*
G01X5082Y651D01*
G01X5083Y634D01*
G01X5085Y616D01*
G01X5088Y599D01*
G01X5092Y581D01*
G01X5096Y564D01*
G01X5102Y547D01*
G01X5108Y531D01*
G01X5115Y515D01*
G01X5131Y483D01*
G01X5140Y468D01*
G01X5150Y454D01*
G01X5161Y439D01*
G01X5172Y426D01*
G01X5196Y400D01*
G01X5209Y388D01*
G01X5223Y377D01*
G01X5237Y367D01*
G01X5252Y357D01*
G01X5282Y339D01*
G01X5298Y331D01*
G01X5314Y324D01*
G01X5331Y318D01*
G01X5365Y308D01*
G01X5382Y305D01*
G01X5400Y302D01*
G01X5417Y299D01*
G01X5434Y298D01*
G01X5470Y298D01*
G01X5487Y299D01*
G01X5505Y302D01*
G01X5522Y304D01*
G01X5539Y308D01*
G01X5573Y318D01*
G01X5590Y324D01*
G01X5606Y331D01*
G01X5622Y339D01*
G01X5637Y347D01*
G01X5652Y356D01*
G01X5667Y366D01*
G01X5681Y377D01*
G01X5707Y399D01*
G01X5720Y412D01*
G01X5732Y425D01*
G01X5743Y438D01*
G01X5753Y452D01*
G01X5764Y467D01*
G01X5773Y482D01*
G01X5781Y497D01*
G01X5789Y513D01*
G01X5796Y529D01*
G01X5802Y546D01*
G01X5808Y562D01*
G01X5809Y568D01*
G01X5812Y573D01*
G01X5824Y585D01*
G01X5829Y587D01*
G01X5835Y589D01*
G01X5840Y590D01*
G01X5846Y591D01*
G01X5852Y590D01*
G01X5857Y589D01*
G01X5863Y587D01*
G01X5867Y585D01*
G01X5872Y581D01*
G01X5880Y573D01*
G01X5882Y568D01*
G01X5884Y562D01*
G01X5890Y546D01*
G01X5896Y529D01*
G01X5903Y513D01*
G01X5911Y497D01*
G01X5919Y482D01*
G01X5928Y467D01*
G01X5938Y452D01*
G01X5949Y438D01*
G01X5960Y425D01*
G01X5984Y399D01*
G01X5998Y388D01*
G01X6011Y377D01*
G01X6025Y366D01*
G01X6040Y356D01*
G01X6055Y347D01*
G01X6070Y339D01*
G01X6086Y331D01*
G01X6102Y324D01*
G01X6119Y318D01*
G01X6153Y308D01*
G01X6170Y304D01*
G01X6187Y302D01*
G01X6205Y299D01*
G01X6222Y298D01*
G01X6257Y298D01*
G01X6275Y299D01*
G01X6292Y302D01*
G01X6309Y304D01*
G01X6327Y308D01*
G01X6361Y318D01*
G01X6377Y324D01*
G01X6393Y331D01*
G01X6409Y339D01*
G01X6424Y347D01*
G01X6440Y356D01*
G01X6454Y366D01*
G01X6482Y388D01*
G01X6495Y399D01*
G01X6519Y425D01*
G01X6530Y438D01*
G01X6541Y452D01*
G01X6551Y467D01*
G01X6569Y497D01*
G01X6583Y529D01*
G01X6590Y546D01*
G01X6595Y562D01*
G01X6597Y568D01*
G01X6600Y573D01*
G01X6603Y577D01*
G01X6607Y581D01*
G01X6612Y585D01*
G01X6622Y589D01*
G01X6628Y590D01*
G01X6633Y591D01*
G01X6639Y590D01*
G01X6644Y589D01*
G01X6650Y587D01*
G01X6655Y585D01*
G01X6659Y581D01*
G01X6664Y577D01*
G01X6667Y573D01*
G01X6670Y568D01*
G01X6672Y562D01*
G01X6677Y546D01*
G01X6683Y529D01*
G01X6690Y513D01*
G01X6698Y497D01*
G01X6706Y482D01*
G01X6726Y452D01*
G01X6736Y438D01*
G01X6747Y425D01*
G01X6759Y412D01*
G01X6772Y399D01*
G01X6798Y377D01*
G01X6813Y366D01*
G01X6827Y356D01*
G01X6842Y347D01*
G01X6858Y339D01*
G01X6873Y331D01*
G01X6890Y324D01*
G01X6906Y318D01*
G01X6940Y308D01*
G01X6957Y304D01*
G01X6975Y302D01*
G01X6992Y299D01*
G01X7009Y298D01*
G01X7045Y298D01*
G01X7062Y299D01*
G01X7080Y302D01*
G01X7097Y305D01*
G01X7115Y308D01*
G01X7131Y313D01*
G01X7148Y318D01*
G01X7165Y324D01*
G01X7181Y331D01*
G01X7197Y339D01*
G01X7213Y348D01*
G01X7228Y357D01*
G01X7256Y377D01*
G01X7270Y388D01*
G01X7283Y400D01*
G01X7319Y439D01*
G01X7329Y454D01*
G01X7339Y468D01*
G01X7348Y483D01*
G01X7357Y499D01*
G01X7365Y515D01*
G01X7372Y531D01*
G01X7378Y547D01*
G01X7388Y581D01*
G01X7391Y599D01*
G01X7394Y616D01*
G01X7396Y634D01*
G01X7397Y651D01*
G01X7398Y669D01*
G01X7397Y686D01*
G01X7396Y704D01*
G01X7394Y722D01*
G01X7388Y756D01*
G01X7378Y790D01*
G01X7372Y807D01*
G01X7365Y823D01*
G01X7357Y839D01*
G01X7339Y869D01*
G01X7329Y884D01*
G01X7319Y898D01*
G01X7307Y912D01*
G01X7295Y925D01*
G01X7283Y937D01*
G01X7270Y949D01*
G01X7242Y971D01*
G01X7228Y981D01*
G01X7213Y990D01*
G01X7197Y999D01*
G01X7165Y1013D01*
G01X7131Y1025D01*
G01X7115Y1029D01*
G01X7097Y1033D01*
G01X7080Y1036D01*
G01X7062Y1038D01*
G01X7045Y1039D01*
G01X7027Y1040D01*
G01X7009Y1039D01*
G01X6992Y1038D01*
G01X6975Y1036D01*
G01X6957Y1033D01*
G01X6923Y1025D01*
G01X6906Y1020D01*
G01X6890Y1013D01*
G01X6873Y1007D01*
G01X6858Y999D01*
G01X6842Y991D01*
G01X6827Y981D01*
G01X6813Y972D01*
G01X6798Y961D01*
G01X6785Y950D01*
G01X6759Y926D01*
G01X6747Y913D01*
G01X6736Y899D01*
G01X6716Y871D01*
G01X6706Y856D01*
G01X6698Y840D01*
G01X6690Y825D01*
G01X6683Y808D01*
G01X6677Y792D01*
G01X6672Y775D01*
G01X6670Y770D01*
G01X6664Y760D01*
G01X6659Y756D01*
G01X6655Y753D01*
G01X6650Y750D01*
G01X6644Y748D01*
G01X6639Y747D01*
G01X6628Y747D01*
G01X6622Y748D01*
G01X6617Y750D01*
G01X6607Y756D01*
G01X6603Y760D01*
G01X6597Y770D01*
G01X6595Y775D01*
G01X6590Y792D01*
G01X6583Y808D01*
G01X6576Y825D01*
G01X6569Y840D01*
G01X6560Y856D01*
G01X6551Y871D01*
G01X6541Y885D01*
G01X6519Y913D01*
G01X6507Y926D01*
G01X6495Y938D01*
G01X6482Y950D01*
G01X6454Y972D01*
G01X6440Y981D01*
G01X6424Y991D01*
G01X6409Y999D01*
G01X6393Y1007D01*
G01X6377Y1013D01*
G01X6361Y1020D01*
G01X6344Y1025D01*
G01X6327Y1029D01*
G01X6309Y1033D01*
G01X6292Y1036D01*
G01X6275Y1038D01*
G01X6257Y1039D01*
G01X6240Y1040D01*
G01X6222Y1039D01*
G01X6205Y1038D01*
G01X6187Y1036D01*
G01X6170Y1033D01*
G01X6136Y1025D01*
G01X6119Y1020D01*
G01X6102Y1013D01*
G01X6086Y1007D01*
G01X6070Y999D01*
G01X6055Y991D01*
G01X6040Y981D01*
G01X6025Y972D01*
G01X6011Y961D01*
G01X5998Y950D01*
G01X5984Y938D01*
G01X5972Y926D01*
G01X5960Y913D01*
G01X5938Y885D01*
G01X5928Y871D01*
G01X5919Y856D01*
G01X5911Y840D01*
G01X5903Y825D01*
G01X5896Y808D01*
G01X5890Y792D01*
G01X5884Y775D01*
G01X5880Y765D01*
G01X5876Y760D01*
G01X5872Y756D01*
G01X5867Y753D01*
G01X5863Y750D01*
G01X5857Y748D01*
G01X5852Y747D01*
G01X5840Y747D01*
G01X5835Y748D01*
G01X5829Y750D01*
G01X5824Y753D01*
G01X5820Y756D01*
G01X5816Y760D01*
G01X5812Y765D01*
G01X5809Y770D01*
G01X5808Y775D01*
G01X5802Y792D01*
G01X5796Y808D01*
G01X5789Y825D01*
G01X5781Y840D01*
G01X5773Y856D01*
G01X5764Y871D01*
G01X5753Y885D01*
G01X5743Y899D01*
G01X5732Y913D01*
G01X5720Y926D01*
G01X5694Y950D01*
G01X5681Y961D01*
G01X5667Y972D01*
G01X5652Y981D01*
G01X5637Y991D01*
G01X5622Y999D01*
G01X5606Y1007D01*
G01X5590Y1013D01*
G01X5573Y1020D01*
G01X5556Y1025D01*
G01X5522Y1033D01*
G01X5505Y1036D01*
G01X5487Y1038D01*
G01X5470Y1039D01*
G37*

%LPD*%
G36*
G01X4395Y939D02*
G01X4935Y939D01*
G01X4935Y399D01*
G01X4395Y399D01*
G01X4395Y939D01*
G37*
G54D18*
G01X5452Y669D03*
G01X6240Y669D03*
G01X7027Y669D03*
G54D14*
G01X5984Y1909D03*
G01X413Y3858D03*
G01X1003Y905D03*
G01X1909Y1850D03*
G01X1870Y1259D03*
G01X2283Y3070D03*
G01X3740Y2027D03*
M00*
M02*
