G04 Layer: TopPasteMaskLayer*
G04 EasyEDA v6.4.7, 2021-01-18T10:53:27+01:00*
G04 ca9b9a0dce2c468c998d6246f507db70,8dc9eacff13444d6b60fd3cb587e6cd5,01*
G04 Gerber Generator version 0.2*
G04 Scale: 100 percent, Rotated: No, Reflected: No *
G04 Dimensions in inches *
G04 leading zeros omitted , absolute positions ,2 integer and 4 decimal *
%FSLAX24Y24*%
%MOIN*%
G90*
D02*

%ADD15R,0.100000X0.050000*%

%LPD*%
G36*
G01X1625Y2059D02*
G01X1625Y1842D01*
G01X1153Y1842D01*
G01X1153Y2059D01*
G01X1625Y2059D01*
G37*
G36*
G01X1625Y1685D02*
G01X1625Y1468D01*
G01X1153Y1468D01*
G01X1153Y1685D01*
G01X1625Y1685D01*
G37*
G36*
G01X1625Y1311D02*
G01X1625Y1094D01*
G01X1153Y1094D01*
G01X1153Y1311D01*
G01X1625Y1311D01*
G37*
G36*
G01X2649Y1311D02*
G01X2649Y1094D01*
G01X2177Y1094D01*
G01X2177Y1311D01*
G01X2649Y1311D01*
G37*
G36*
G01X2649Y2059D02*
G01X2649Y1842D01*
G01X2177Y1842D01*
G01X2177Y2059D01*
G01X2649Y2059D01*
G37*
G36*
G01X2511Y2175D02*
G01X2511Y2588D01*
G01X2936Y2588D01*
G01X2936Y2175D01*
G01X2511Y2175D01*
G37*
G36*
G01X2511Y2864D02*
G01X2511Y3277D01*
G01X2936Y3277D01*
G01X2936Y2864D01*
G01X2511Y2864D01*
G37*
G36*
G01X826Y2169D02*
G01X826Y1755D01*
G01X401Y1755D01*
G01X401Y2169D01*
G01X826Y2169D01*
G37*
G36*
G01X826Y1480D02*
G01X826Y1066D01*
G01X401Y1066D01*
G01X401Y1480D01*
G01X826Y1480D01*
G37*
G36*
G01X5858Y2177D02*
G01X5858Y2570D01*
G01X6291Y2570D01*
G01X6291Y2177D01*
G01X5858Y2177D01*
G37*
G36*
G01X5858Y2846D02*
G01X5858Y3240D01*
G01X6291Y3240D01*
G01X6291Y2846D01*
G01X5858Y2846D01*
G37*
G36*
G01X3455Y3111D02*
G01X3455Y2991D01*
G01X3065Y2991D01*
G01X3065Y3111D01*
G01X3455Y3111D01*
G37*
G36*
G01X3455Y2855D02*
G01X3455Y2735D01*
G01X3065Y2735D01*
G01X3065Y2855D01*
G01X3455Y2855D01*
G37*
G36*
G01X3455Y2599D02*
G01X3455Y2479D01*
G01X3065Y2479D01*
G01X3065Y2599D01*
G01X3455Y2599D01*
G37*
G36*
G01X3455Y2343D02*
G01X3455Y2223D01*
G01X3065Y2223D01*
G01X3065Y2343D01*
G01X3455Y2343D01*
G37*
G36*
G01X3455Y2087D02*
G01X3455Y1967D01*
G01X3065Y1967D01*
G01X3065Y2087D01*
G01X3455Y2087D01*
G37*
G36*
G01X3455Y1831D02*
G01X3455Y1711D01*
G01X3065Y1711D01*
G01X3065Y1831D01*
G01X3455Y1831D01*
G37*
G36*
G01X3455Y1575D02*
G01X3455Y1455D01*
G01X3065Y1455D01*
G01X3065Y1575D01*
G01X3455Y1575D01*
G37*
G36*
G01X5753Y1575D02*
G01X5753Y1455D01*
G01X5363Y1455D01*
G01X5363Y1575D01*
G01X5753Y1575D01*
G37*
G36*
G01X5753Y1831D02*
G01X5753Y1711D01*
G01X5363Y1711D01*
G01X5363Y1831D01*
G01X5753Y1831D01*
G37*
G36*
G01X5753Y2087D02*
G01X5753Y1967D01*
G01X5363Y1967D01*
G01X5363Y2087D01*
G01X5753Y2087D01*
G37*
G36*
G01X5753Y2343D02*
G01X5753Y2223D01*
G01X5363Y2223D01*
G01X5363Y2343D01*
G01X5753Y2343D01*
G37*
G36*
G01X5753Y2599D02*
G01X5753Y2479D01*
G01X5363Y2479D01*
G01X5363Y2599D01*
G01X5753Y2599D01*
G37*
G36*
G01X5753Y2855D02*
G01X5753Y2735D01*
G01X5363Y2735D01*
G01X5363Y2855D01*
G01X5753Y2855D01*
G37*
G36*
G01X5753Y3111D02*
G01X5753Y2991D01*
G01X5363Y2991D01*
G01X5363Y3111D01*
G01X5753Y3111D01*
G37*
G36*
G01X1240Y5137D02*
G01X1240Y4744D01*
G01X807Y4744D01*
G01X807Y5137D01*
G01X1240Y5137D01*
G37*
G36*
G01X1240Y4468D02*
G01X1240Y4074D01*
G01X807Y4074D01*
G01X807Y4468D01*
G01X1240Y4468D01*
G37*
G36*
G01X629Y5137D02*
G01X629Y4744D01*
G01X196Y4744D01*
G01X196Y5137D01*
G01X629Y5137D01*
G37*
G36*
G01X629Y4468D02*
G01X629Y4074D01*
G01X196Y4074D01*
G01X196Y4468D01*
G01X629Y4468D01*
G37*
G54D15*
G01X6929Y3051D03*
G36*
G01X169Y3635D02*
G01X1169Y3635D01*
G01X1169Y3135D01*
G01X169Y3135D01*
G01X169Y3635D01*
G37*
G36*
G01X169Y683D02*
G01X1169Y683D01*
G01X1169Y183D01*
G01X169Y183D01*
G01X169Y683D01*
G37*
G01X669Y2559D03*
G36*
G01X2893Y1177D02*
G01X3307Y1177D01*
G01X3307Y751D01*
G01X2893Y751D01*
G01X2893Y1177D01*
G37*
G36*
G01X3582Y1177D02*
G01X3995Y1177D01*
G01X3995Y751D01*
G01X3582Y751D01*
G01X3582Y1177D01*
G37*
G36*
G01X3211Y4667D02*
G01X3911Y4667D01*
G01X3911Y3867D01*
G01X3211Y3867D01*
G01X3211Y4667D01*
G37*
G36*
G01X4911Y4667D02*
G01X5611Y4667D01*
G01X5611Y3867D01*
G01X4911Y3867D01*
G01X4911Y4667D01*
G37*
M00*
M02*
