G04 Layer: TopLayer*
G04 EasyEDA v6.4.7, 2021-01-18T10:53:27+01:00*
G04 ca9b9a0dce2c468c998d6246f507db70,8dc9eacff13444d6b60fd3cb587e6cd5,01*
G04 Gerber Generator version 0.2*
G04 Scale: 100 percent, Rotated: No, Reflected: No *
G04 Dimensions in inches *
G04 leading zeros omitted , absolute positions ,2 integer and 4 decimal *
%FSLAX24Y24*%
%MOIN*%
G90*
D02*

%ADD10C,0.010000*%
%ADD11C,0.012000*%
%ADD12C,0.016000*%
%ADD13C,0.024000*%
%ADD14C,0.029750*%
%ADD15R,0.100000X0.050000*%
%ADD18C,0.054000*%

%LPD*%
G36*
G01X2036Y2047D02*
G01X1766Y2047D01*
G01X1761Y2046D01*
G01X1755Y2045D01*
G01X1750Y2043D01*
G01X1740Y2037D01*
G01X1736Y2033D01*
G01X1730Y2023D01*
G01X1728Y2018D01*
G01X1727Y2012D01*
G01X1726Y2007D01*
G01X1726Y1833D01*
G01X1725Y1823D01*
G01X1723Y1814D01*
G01X1720Y1806D01*
G01X1716Y1797D01*
G01X1706Y1781D01*
G01X1700Y1774D01*
G01X1693Y1767D01*
G01X1686Y1761D01*
G01X1679Y1756D01*
G01X1670Y1752D01*
G01X1662Y1748D01*
G01X1653Y1745D01*
G01X1635Y1741D01*
G01X1333Y1741D01*
G01X1327Y1739D01*
G01X1317Y1735D01*
G01X1312Y1731D01*
G01X1308Y1727D01*
G01X1305Y1723D01*
G01X1302Y1718D01*
G01X1300Y1712D01*
G01X1299Y1707D01*
G01X1299Y1446D01*
G01X1300Y1440D01*
G01X1302Y1435D01*
G01X1308Y1425D01*
G01X1312Y1421D01*
G01X1322Y1415D01*
G01X1327Y1413D01*
G01X1333Y1412D01*
G01X1339Y1412D01*
G01X1625Y1411D01*
G01X1625Y1412D01*
G01X1635Y1411D01*
G01X1644Y1410D01*
G01X1653Y1408D01*
G01X1662Y1405D01*
G01X1670Y1401D01*
G01X1679Y1396D01*
G01X1686Y1391D01*
G01X1700Y1379D01*
G01X1706Y1371D01*
G01X1711Y1364D01*
G01X1716Y1356D01*
G01X1720Y1347D01*
G01X1723Y1338D01*
G01X1725Y1329D01*
G01X1726Y1320D01*
G01X1726Y1146D01*
G01X1728Y1134D01*
G01X1730Y1129D01*
G01X1733Y1124D01*
G01X1736Y1120D01*
G01X1740Y1115D01*
G01X1750Y1109D01*
G01X1755Y1107D01*
G01X1761Y1106D01*
G01X2445Y1106D01*
G01X2451Y1107D01*
G01X2456Y1109D01*
G01X2466Y1115D01*
G01X2470Y1120D01*
G01X2473Y1124D01*
G01X2476Y1129D01*
G01X2478Y1134D01*
G01X2480Y1146D01*
G01X2480Y1701D01*
G01X2479Y1707D01*
G01X2478Y1712D01*
G01X2476Y1718D01*
G01X2473Y1723D01*
G01X2470Y1727D01*
G01X2466Y1731D01*
G01X2461Y1735D01*
G01X2451Y1739D01*
G01X2445Y1741D01*
G01X2167Y1741D01*
G01X2149Y1745D01*
G01X2140Y1748D01*
G01X2132Y1752D01*
G01X2123Y1756D01*
G01X2116Y1761D01*
G01X2109Y1767D01*
G01X2102Y1774D01*
G01X2096Y1781D01*
G01X2086Y1797D01*
G01X2083Y1806D01*
G01X2079Y1814D01*
G01X2077Y1823D01*
G01X2076Y1833D01*
G01X2076Y2007D01*
G01X2075Y2012D01*
G01X2074Y2018D01*
G01X2072Y2023D01*
G01X2066Y2033D01*
G01X2062Y2037D01*
G01X2052Y2043D01*
G01X2047Y2045D01*
G01X2041Y2046D01*
G01X2036Y2047D01*
G37*

%LPD*%
G54D11*
G01X413Y4940D02*
G01X1023Y4940D01*
G54D10*
G01X3100Y433D02*
G01X3100Y964D01*
G01X4173Y236D02*
G01X3297Y236D01*
G54D12*
G01X3260Y1515D02*
G01X3260Y1124D01*
G01X3100Y964D02*
G01X3100Y925D01*
G01X1586Y925D01*
G54D11*
G01X3260Y1771D02*
G01X3260Y1515D01*
G54D12*
G01X614Y1962D02*
G01X614Y2559D01*
G01X669Y2559D01*
G01X744Y1950D02*
G01X1389Y1950D01*
G01X984Y1950D01*
G01X984Y1202D01*
G01X1389Y1202D01*
G01X1389Y1122D01*
G54D11*
G01X5255Y236D02*
G01X4173Y236D01*
G01X5452Y669D02*
G01X5452Y433D01*
G54D12*
G01X2724Y2261D02*
G01X2724Y2381D01*
G54D11*
G01X3260Y2539D02*
G01X2881Y2539D01*
G54D13*
G01X6074Y3043D02*
G01X6921Y3043D01*
G54D11*
G01X669Y3385D02*
G01X1023Y3543D01*
G01X1023Y4271D01*
G54D10*
G01X5236Y2795D02*
G01X5558Y2795D01*
G01X6240Y905D02*
G01X6240Y669D01*
G01X5236Y1102D02*
G01X6043Y1102D01*
G01X5433Y2539D02*
G01X5558Y2539D01*
G01X7027Y1102D02*
G01X7027Y669D01*
G01X5236Y2342D02*
G01X5236Y1496D01*
G54D11*
G01X5558Y2283D02*
G01X6023Y2283D01*
G54D12*
G01X810Y905D02*
G01X1003Y905D01*
G01X614Y1273D02*
G01X614Y1102D01*
G54D11*
G01X4427Y906D02*
G01X4665Y669D01*
G01X3789Y964D02*
G01X4288Y964D01*
G01X3260Y2027D02*
G01X3740Y2027D01*
G54D12*
G01X2724Y3070D02*
G01X2283Y3070D01*
G54D13*
G01X614Y433D02*
G01X669Y433D01*
G01X1003Y433D01*
G01X1003Y905D01*
G54D10*
G01X413Y4271D02*
G01X413Y3858D01*
G54D11*
G01X5558Y2027D02*
G01X5826Y2027D01*
G54D10*
G01X5261Y3347D02*
G01X5261Y4267D01*
G01X1049Y4967D02*
G01X1023Y4940D01*
G01X3260Y2795D02*
G01X4161Y2795D01*
G01X4137Y4940D02*
G01X1023Y4940D01*
G01X4461Y3095D02*
G01X4461Y4617D01*
G01X5039Y2598D02*
G01X5039Y1299D01*
G01X5433Y1299D02*
G01X6830Y1299D01*
G01X3561Y3351D02*
G01X3561Y4267D01*
G36*
G01X1625Y2059D02*
G01X1625Y1842D01*
G01X1153Y1842D01*
G01X1153Y2059D01*
G01X1625Y2059D01*
G37*
G36*
G01X1625Y1685D02*
G01X1625Y1468D01*
G01X1153Y1468D01*
G01X1153Y1685D01*
G01X1625Y1685D01*
G37*
G36*
G01X1625Y1311D02*
G01X1625Y1094D01*
G01X1153Y1094D01*
G01X1153Y1311D01*
G01X1625Y1311D01*
G37*
G36*
G01X2649Y1311D02*
G01X2649Y1094D01*
G01X2177Y1094D01*
G01X2177Y1311D01*
G01X2649Y1311D01*
G37*
G36*
G01X2649Y2059D02*
G01X2649Y1842D01*
G01X2177Y1842D01*
G01X2177Y2059D01*
G01X2649Y2059D01*
G37*
G36*
G01X2511Y2175D02*
G01X2511Y2588D01*
G01X2936Y2588D01*
G01X2936Y2175D01*
G01X2511Y2175D01*
G37*
G36*
G01X2511Y2864D02*
G01X2511Y3277D01*
G01X2936Y3277D01*
G01X2936Y2864D01*
G01X2511Y2864D01*
G37*
G36*
G01X826Y2169D02*
G01X826Y1755D01*
G01X401Y1755D01*
G01X401Y2169D01*
G01X826Y2169D01*
G37*
G36*
G01X826Y1480D02*
G01X826Y1066D01*
G01X401Y1066D01*
G01X401Y1480D01*
G01X826Y1480D01*
G37*
G36*
G01X5858Y2177D02*
G01X5858Y2570D01*
G01X6291Y2570D01*
G01X6291Y2177D01*
G01X5858Y2177D01*
G37*
G36*
G01X5858Y2846D02*
G01X5858Y3240D01*
G01X6291Y3240D01*
G01X6291Y2846D01*
G01X5858Y2846D01*
G37*
G36*
G01X3455Y3111D02*
G01X3455Y2991D01*
G01X3065Y2991D01*
G01X3065Y3111D01*
G01X3455Y3111D01*
G37*
G36*
G01X3455Y2855D02*
G01X3455Y2735D01*
G01X3065Y2735D01*
G01X3065Y2855D01*
G01X3455Y2855D01*
G37*
G36*
G01X3455Y2599D02*
G01X3455Y2479D01*
G01X3065Y2479D01*
G01X3065Y2599D01*
G01X3455Y2599D01*
G37*
G36*
G01X3455Y2343D02*
G01X3455Y2223D01*
G01X3065Y2223D01*
G01X3065Y2343D01*
G01X3455Y2343D01*
G37*
G36*
G01X3455Y2087D02*
G01X3455Y1967D01*
G01X3065Y1967D01*
G01X3065Y2087D01*
G01X3455Y2087D01*
G37*
G36*
G01X3455Y1831D02*
G01X3455Y1711D01*
G01X3065Y1711D01*
G01X3065Y1831D01*
G01X3455Y1831D01*
G37*
G36*
G01X3455Y1575D02*
G01X3455Y1455D01*
G01X3065Y1455D01*
G01X3065Y1575D01*
G01X3455Y1575D01*
G37*
G36*
G01X5753Y1575D02*
G01X5753Y1455D01*
G01X5363Y1455D01*
G01X5363Y1575D01*
G01X5753Y1575D01*
G37*
G36*
G01X5753Y1831D02*
G01X5753Y1711D01*
G01X5363Y1711D01*
G01X5363Y1831D01*
G01X5753Y1831D01*
G37*
G36*
G01X5753Y2087D02*
G01X5753Y1967D01*
G01X5363Y1967D01*
G01X5363Y2087D01*
G01X5753Y2087D01*
G37*
G36*
G01X5753Y2343D02*
G01X5753Y2223D01*
G01X5363Y2223D01*
G01X5363Y2343D01*
G01X5753Y2343D01*
G37*
G36*
G01X5753Y2599D02*
G01X5753Y2479D01*
G01X5363Y2479D01*
G01X5363Y2599D01*
G01X5753Y2599D01*
G37*
G36*
G01X5753Y2855D02*
G01X5753Y2735D01*
G01X5363Y2735D01*
G01X5363Y2855D01*
G01X5753Y2855D01*
G37*
G36*
G01X5753Y3111D02*
G01X5753Y2991D01*
G01X5363Y2991D01*
G01X5363Y3111D01*
G01X5753Y3111D01*
G37*
G36*
G01X1240Y5137D02*
G01X1240Y4744D01*
G01X807Y4744D01*
G01X807Y5137D01*
G01X1240Y5137D01*
G37*
G36*
G01X1240Y4468D02*
G01X1240Y4074D01*
G01X807Y4074D01*
G01X807Y4468D01*
G01X1240Y4468D01*
G37*
G36*
G01X629Y5137D02*
G01X629Y4744D01*
G01X196Y4744D01*
G01X196Y5137D01*
G01X629Y5137D01*
G37*
G36*
G01X629Y4468D02*
G01X629Y4074D01*
G01X196Y4074D01*
G01X196Y4468D01*
G01X629Y4468D01*
G37*
G54D15*
G01X6929Y3051D03*
G36*
G01X169Y3635D02*
G01X1169Y3635D01*
G01X1169Y3135D01*
G01X169Y3135D01*
G01X169Y3635D01*
G37*
G36*
G01X169Y683D02*
G01X1169Y683D01*
G01X1169Y183D01*
G01X169Y183D01*
G01X169Y683D01*
G37*
G01X669Y2559D03*
G36*
G01X2893Y1177D02*
G01X3307Y1177D01*
G01X3307Y751D01*
G01X2893Y751D01*
G01X2893Y1177D01*
G37*
G36*
G01X3582Y1177D02*
G01X3995Y1177D01*
G01X3995Y751D01*
G01X3582Y751D01*
G01X3582Y1177D01*
G37*
G36*
G01X3211Y4667D02*
G01X3911Y4667D01*
G01X3911Y3867D01*
G01X3211Y3867D01*
G01X3211Y4667D01*
G37*
G36*
G01X4911Y4667D02*
G01X5611Y4667D01*
G01X5611Y3867D01*
G01X4911Y3867D01*
G01X4911Y4667D01*
G37*
G54D11*
G75*
G01X5827Y2027D02*
G02X5984Y1909I19J-137D01*
G01*
G75*
G01X4289Y965D02*
G02X4428Y907I0J-197D01*
G01*
G54D12*
G75*
G01X614Y1102D02*
G03X811Y906I197J0D01*
G01*
G54D11*
G75*
G01X6024Y2283D02*
G03X6075Y2374I-20J71D01*
G01*
G54D10*
G75*
G01X5236Y1496D02*
G03X5433Y1299I197J0D01*
G01*
G75*
G01X6831Y1299D02*
G02X7028Y1102I0J-197D01*
G01*
G75*
G01X5236Y2343D02*
G02X5433Y2539I197J-1D01*
G01*
G75*
G01X5039Y1299D02*
G03X5236Y1102I197J0D01*
G01*
G75*
G01X6043Y1102D02*
G02X6240Y906I0J-197D01*
G01*
G75*
G01X5039Y2598D02*
G02X5236Y2795I197J0D01*
G01*
G54D13*
G75*
G01X6921Y3043D02*
G03X6929Y3051I0J8D01*
G01*
G54D11*
G75*
G01X2882Y2539D02*
G03X2724Y2382I0J-157D01*
G01*
G54D12*
G75*
G01X2413Y1951D02*
G03X2724Y2262I0J311D01*
G01*
G54D11*
G75*
G01X5453Y433D02*
G02X5256Y236I-197J0D01*
G01*
G54D12*
G75*
G01X669Y2559D02*
G02X732Y2496I0J-63D01*
G01*
G75*
G01X614Y1963D02*
G03X744Y1951I71J59D01*
G01*
G75*
G01X1587Y925D02*
G02X1390Y1122I0J197D01*
G01*
G75*
G01X3261Y1125D02*
G02X3100Y965I-161J0D01*
G01*
G54D10*
G75*
G01X3297Y236D02*
G02X3100Y433I0J197D01*
G01*
G75*
G01X3261Y3051D02*
G03X3561Y3352I0J301D01*
G01*
G75*
G01X5558Y3051D02*
G02X5261Y3348I0J297D01*
G01*
G75*
G01X4161Y2795D02*
G03X4461Y3095I0J300D01*
G01*
G75*
G01X4461Y4617D02*
G03X4138Y4941I-323J0D01*
G01*
G36*
G01X4395Y939D02*
G01X4935Y939D01*
G01X4935Y399D01*
G01X4395Y399D01*
G01X4395Y939D01*
G37*
G54D18*
G01X5452Y669D03*
G01X6240Y669D03*
G01X7027Y669D03*
G54D14*
G01X5984Y1909D03*
G01X413Y3858D03*
G01X1003Y905D03*
G01X1909Y1850D03*
G01X1870Y1259D03*
G01X2283Y3070D03*
G01X3740Y2027D03*
M00*
M02*
